<svg xmlns="http://www.w3.org/2000/svg" viewBox="0 0 595.3 841.9"><rect width="595.3" height="841.89" fill="#fde9e1"/><g fill="#1d1d1b"><path d="M219.7,412.7l.2-.2h2.3c.1,0,.1.1.1.2v12.8a.6.6,0,0,0,1.2,0V412.7c0-.1,0-.2.1-.2H226v13.1a3,3,0,0,1-3.2,2.9,2.9,2.9,0,0,1-3.2-2.9Z"/><path d="M227.3,428.2c-.2,0-.2-.1-.2-.2V416.5c0-.1,0-.2.2-.2h2.3a.3.3,0,0,1,.1.2v.3h.1a1.6,1.6,0,0,1,1.3-.6c1.7,0,2.4,1.4,2.4,2.9V428a.2.2,0,0,1-.2.2H231a.2.2,0,0,1-.2-.2v-8.8a.6.6,0,0,0-.5-.6.6.6,0,0,0-.6.6V428c0,.1,0,.2-.1.2Z"/><path d="M239.1,428.2a.2.2,0,0,1-.2-.2l-1.8-11.3c-.1-.1,0-.2.1-.2h2.3a.2.2,0,0,1,.2.2l.8,7.9h.1l.8-7.9c0-.1,0-.2.2-.2h2.2a.2.2,0,0,1,.2.2L242.2,428l-.2.2Z"/><path d="M244.7,415.3l-.2-.2v-2.4a.2.2,0,0,1,.2-.2H247a.2.2,0,0,1,.2.2v2.4l-.2.2Zm0,12.9a.2.2,0,0,1-.2-.2V416.7a.2.2,0,0,1,.2-.2H247a.2.2,0,0,1,.2.2V428a.2.2,0,0,1-.2.2Z"/><path d="M248,425.9v-1.6c0-1.2.5-1.8,1.6-2.6l2.3-1.5v-1a.6.6,0,0,0-1.2,0v1c0,.1,0,.2-.1.2h-2.3c-.1,0-.2,0-.2-.2v-1.1a3,3,0,0,1,3.2-2.9,3.1,3.1,0,0,1,3.3,2.9v9l-.2.2h-2.3c-.1,0-.1-.1-.1-.2v-.5h0a1.8,1.8,0,0,1-1.6.9A2.3,2.3,0,0,1,248,425.9Zm3.9-.8v-2.5l-.7.6a1.4,1.4,0,0,0-.5,1v1c0,.5.3.7.6.7S251.9,425.7,251.9,425.1Z"/><path d="M254.1,432.1c-.1,0-.1,0-.1-.2v-2.3c0-.1,0-.2.1-.2a1.4,1.4,0,0,0,1.1-.3,1.2,1.2,0,0,0,.3-1V416.7a.2.2,0,0,1,.2-.2h2.4c.1,0,.1.1.1.2v11.9a3.3,3.3,0,0,1-3.6,3.5Zm1.6-16.8c-.1,0-.1-.1-.1-.2v-2.4c0-.1,0-.2.1-.2H258c.2,0,.2.1.2.2v2.4c0,.1,0,.2-.2.2Z"/><path d="M265.6,419.1v3.5c0,.1,0,.2-.2.2h-3.6v2.7a.6.6,0,0,0,1.2,0v-1.6c0-.1,0-.2.1-.2h2.3c.2,0,.2.1.2.2v1.7a3,3,0,0,1-3.2,2.9,2.9,2.9,0,0,1-3.2-2.9v-6.5a2.9,2.9,0,0,1,3.2-2.9A3,3,0,0,1,265.6,419.1Zm-3.8,1.7H263v-1.6a.6.6,0,0,0-1.2,0Z"/><path d="M269.4,425.6v-2.8a.2.2,0,0,1,.2-.2h2.3a.2.2,0,0,1,.2.2v2.7a.5.5,0,0,0,.5.5.6.6,0,0,0,.6-.5v-2.2a1,1,0,0,0-.4-.9l-2.3-2.5a3.5,3.5,0,0,1-1.1-2.7v-2.1a2.9,2.9,0,0,1,3.2-2.9,3,3,0,0,1,3.2,2.9v2.6c0,.1,0,.1-.1.1h-2.4c-.1,0-.1,0-.1-.1v-2.5a.6.6,0,0,0-.6-.5.5.5,0,0,0-.5.5v2a1.2,1.2,0,0,0,.3.9l2.3,2.5a3.5,3.5,0,0,1,1.1,2.7v2.3a2.9,2.9,0,0,1-3.1,2.9A3,3,0,0,1,269.4,425.6Z"/><path d="M276.9,428.2a.2.2,0,0,1-.2-.2V412.7l.2-.2h2.3a.2.2,0,0,1,.2.2V428a.2.2,0,0,1-.2.2Z"/><path d="M285.7,412.7l.2-.2h2.6a.2.2,0,0,1,.2.2V428a.2.2,0,0,1-.2.2h-1.9a.2.2,0,0,1-.2-.2v-9.6h0l-.8,9.6a.2.2,0,0,1-.2.2h-1.6a.2.2,0,0,1-.2-.2l-.8-9.6h0V428a.2.2,0,0,1-.2.2h-1.9a.2.2,0,0,1-.2-.2V412.7l.2-.2h2.5a.2.2,0,0,1,.2.2l1.2,9.5h0Z"/><path d="M289.9,428.2c-.1,0-.1-.1-.1-.2V412.7c0-.1,0-.2.1-.2H293a3,3,0,0,1,3.2,2.9v3.8a3,3,0,0,1-3.2,2.9h-.6V428c0,.1,0,.2-.1.2Zm2.5-8.6h.6a.5.5,0,0,0,.5-.5v-3.6a.5.5,0,0,0-.5-.5h-.6Z"/><path d="M297.2,428.2c-.1,0-.1-.1-.1-.2V412.7c0-.1,0-.2.1-.2h2.3a.2.2,0,0,1,.2.2v13h3a.2.2,0,0,1,.2.2V428a.2.2,0,0,1-.2.2Z"/><path d="M303.8,428.2a.2.2,0,0,1-.2-.2V412.7a.2.2,0,0,1,.2-.2h5.7a.2.2,0,0,1,.2.2v2.1a.2.2,0,0,1-.2.2h-3.2v4.1H309v2.1l-.2.2h-2.5v4.2h3.2a.2.2,0,0,1,.2.2V428a.2.2,0,0,1-.2.2Z"/><path d="M317.3,416.8h.1v-4.1c0-.1,0-.2.2-.2h2.3c.1,0,.1.1.1.2v15.4c0,.1,0,.2-.1.2h-2.3c-.2,0-.2-.1-.2-.2v-.2h0a2.5,2.5,0,0,1-1.5.6c-1.6,0-2.3-1.4-2.3-2.9v-6.5c0-1.5.7-2.9,2.3-2.9A1.7,1.7,0,0,1,317.3,416.8Zm-1,8.7a.5.5,0,0,0,.5.5.6.6,0,0,0,.6-.5v-6.3a.6.6,0,0,0-.6-.6.6.6,0,0,0-.5.6Z"/><path d="M327.4,419.1v3.5a.2.2,0,0,1-.2.2h-3.6v2.7a.6.6,0,0,0,1.2,0v-1.6c0-.1,0-.2.1-.2h2.3a.2.2,0,0,1,.2.2v1.7a3,3,0,0,1-3.2,2.9,2.9,2.9,0,0,1-3.2-2.9v-6.5a2.9,2.9,0,0,1,3.2-2.9A3,3,0,0,1,327.4,419.1Zm-3.8,1.7h1.2v-1.6a.6.6,0,0,0-1.2,0Z"/><path d="M332.9,428.2l-.2-.2-1.8-11.3a.2.2,0,0,1,.2-.2h2.3v.2l.8,7.9h.1l.8-7.9.2-.2h2.2c.2,0,.2.1.2.2L336,428a.2.2,0,0,1-.2.2Z"/><path d="M344.5,419.1v3.5l-.2.2h-3.6v2.7c0,.3.2.5.6.5a.5.5,0,0,0,.5-.5v-1.6a.2.2,0,0,1,.2-.2h2.3l.2.2v1.7a3,3,0,0,1-3.3,2.9,3,3,0,0,1-3.2-2.9v-6.5a3,3,0,0,1,3.2-2.9A3,3,0,0,1,344.5,419.1Zm-3.8,1.7h1.1v-1.6a.5.5,0,0,0-.5-.5c-.4,0-.6.2-.6.5Z"/><path d="M345.5,428.2a.2.2,0,0,1-.2-.2V416.5a.2.2,0,0,1,.2-.2h2.3a.2.2,0,0,1,.2.2v.5h.1a2.2,2.2,0,0,1,1.6-.7h.2a.2.2,0,0,1,.2.2v2.1l-.2.2h-.6c-.9,0-1.3.5-1.3,1V428a.2.2,0,0,1-.2.2Z"/><path d="M354.3,416.8h.1v-4.1c0-.1,0-.2.1-.2h2.4c.1,0,.1.1.1.2v15.4c0,.1,0,.2-.1.2h-2.4c-.1,0-.1-.1-.1-.2v-.2h-.1a2,2,0,0,1-1.4.6c-1.6,0-2.3-1.4-2.3-2.9v-6.5c0-1.5.7-2.9,2.3-2.9A1.7,1.7,0,0,1,354.3,416.8Zm-1,8.7a.5.5,0,0,0,.5.5.6.6,0,0,0,.6-.5v-6.3a.6.6,0,0,0-.6-.6.6.6,0,0,0-.5.6Z"/><path d="M357.8,425.9v-1.6c0-1.2.6-1.8,1.7-2.6l2.3-1.5v-1a.6.6,0,1,0-1.2,0v1a.2.2,0,0,1-.2.2h-2.3s-.1,0-.1-.2v-1.1a2.9,2.9,0,0,1,3.2-2.9,3,3,0,0,1,3.2,2.9v9a.2.2,0,0,1-.2.2H362a.2.2,0,0,1-.2-.2v-.5h-.1a1.6,1.6,0,0,1-1.5.9A2.4,2.4,0,0,1,357.8,425.9Zm4-.8v-2.5l-.7.6a1.1,1.1,0,0,0-.5,1v1c0,.5.3.7.5.7S361.8,425.7,361.8,425.1Z"/><path d="M369.1,416.8h0v-4.1a.2.2,0,0,1,.2-.2h2.3l.2.2v15.4l-.2.2h-2.3a.2.2,0,0,1-.2-.2v-.2h0a2.2,2.2,0,0,1-1.4.6c-1.7,0-2.4-1.4-2.4-2.9v-6.5c0-1.5.7-2.9,2.4-2.9A2,2,0,0,1,369.1,416.8Zm-1.1,8.7c0,.3.2.5.6.5a.5.5,0,0,0,.5-.5v-6.3a.6.6,0,0,0-.5-.6.6.6,0,0,0-.6.6Z"/><path d="M372.8,425.1c0-.1.1-.1.2-.1h2.3c.1,0,.2,0,.2.1V428c0,.1-.1.1-.2.1H373c-.1,0-.2,0-.2-.1Z"/><rect x="247.8" y="771.1" width="1.1" height="26.89"/><rect x="250" y="771.1" width="1.1" height="26.89"/><rect x="252.2" y="771.1" width="3.3" height="26.89"/><rect x="256.7" y="771.1" width="2.2" height="26.89"/><rect x="262.2" y="771.1" width="1.1" height="26.89"/><rect x="265.5" y="771.1" width="1.1" height="26.89"/><rect x="270" y="771.1" width="1.1" height="26.89"/><rect x="273.3" y="771.1" width="1.1" height="26.89"/><rect x="275.5" y="771.1" width="1.1" height="26.89"/><rect x="279.9" y="771.1" width="2.2" height="26.89"/><rect x="283.3" y="771.1" width="1.1" height="26.89"/><rect x="288.8" y="771.1" width="1.1" height="26.89"/><rect x="291" y="771.1" width="2.2" height="26.89"/><rect x="296.6" y="771.1" width="1.1" height="26.89"/><rect x="298.8" y="771.1" width="1.1" height="26.89"/><rect x="301" y="771.1" width="1.1" height="26.89"/><rect x="303.2" y="771.1" width="1.1" height="26.89"/><rect x="305.4" y="771.1" width="3.3" height="26.89"/><rect x="311" y="771.1" width="2.2" height="26.89"/><rect x="315.4" y="771.1" width="2.2" height="26.89"/><rect x="318.7" y="771.1" width="1.1" height="26.89"/><rect x="324.3" y="771.1" width="1.1" height="26.89"/><rect x="326.5" y="771.1" width="1.1" height="26.89"/><rect x="328.7" y="771.1" width="3.3" height="26.89"/><rect x="334.3" y="771.1" width="1.1" height="26.89"/><rect x="338.7" y="771.1" width="1.1" height="26.89"/><rect x="342" y="771.1" width="1.1" height="26.89"/><rect x="347.6" y="771.1" width="1.1" height="26.89"/><rect x="349.8" y="771.1" width="1.1" height="26.89"/><rect x="352" y="771.1" width="1.1" height="26.89"/><path d="M246.8,800.8a7.9,7.9,0,0,1-.2,1.7,4.3,4.3,0,0,1-.5,1.2,2.7,2.7,0,0,1-.8.7l-1,.2h-.7l-.6-.3c-.1-.1-.3-.2-.4-.4l-.3-.7.9-.2a.8.8,0,0,0,.4.7.9.9,0,0,0,.7.3l.7-.2c.2-.1.3-.3.5-.6l.3-.9a4.1,4.1,0,0,0,.1-1.2.5.5,0,0,1-.3.4l-.4.3-.5.2h-.5l-.8-.2a1.8,1.8,0,0,1-.7-.5,4.3,4.3,0,0,1-.4-.7,2.8,2.8,0,0,1-.1-.9,3.1,3.1,0,0,1,.1-1,2.6,2.6,0,0,1,1.2-1.2h1a2,2,0,0,1,1.7.9A4.2,4.2,0,0,1,246.8,800.8Zm-1-.9a1.7,1.7,0,0,0-.1-.7,1.4,1.4,0,0,0-.2-.6l-.5-.3-.6-.2h-.5l-.5.3c-.1.2-.2.3-.2.5a1.5,1.5,0,0,0-.1.7,1.3,1.3,0,0,0,.1.6.8.8,0,0,0,.2.5l.4.3h1.1l.5-.3.3-.4A1.3,1.3,0,0,0,245.8,799.9Z"/><rect x="251.7" y="794.6" width="46.5" height="11.64" fill="#fde9e1"/><rect x="302.7" y="794.6" width="46.5" height="11.64" fill="#fde9e1"/><path d="M263.4,798.1l-1,1.6a7.7,7.7,0,0,0-.7,1.6,7.5,7.5,0,0,0-.5,1.6,8.8,8.8,0,0,0-.2,1.7h-.9a9.9,9.9,0,0,1,.2-1.7,7.5,7.5,0,0,1,.5-1.6c.3-.6.5-1.1.8-1.6l.9-1.5h-3.7v-.8h4.6Zm5.6,4.3c0,.3-.1.6-.1.9l-.5.7-.7.4-1,.2-1.1-.2-.7-.4-.5-.7c0-.3-.1-.6-.1-.9a2.2,2.2,0,0,1,.1-.8l.3-.5.5-.4.5-.2h0l-.5-.2-.4-.3c-.1-.2-.2-.3-.2-.5a.7.7,0,0,1-.1-.5,1.3,1.3,0,0,1,.1-.6,1,1,0,0,1,.4-.5l.7-.4h1.9l.7.4a1,1,0,0,1,.4.5,1.3,1.3,0,0,1,.1.6.7.7,0,0,1-.1.5c0,.2-.1.3-.2.5l-.4.3-.5.2h0l.6.2c.1.1.3.2.4.4l.3.5A1.9,1.9,0,0,1,269,802.4Zm-1.1-3.3c0-.2,0-.3-.1-.4s-.1-.3-.2-.3l-.4-.3H266l-.3.3q-.1,0-.3.3v.8l.2.3.4.3h1.3l.4-.3.2-.3Zm.2,3.2a1.3,1.3,0,0,0-.1-.6.8.8,0,0,0-.2-.4.5.5,0,0,0-.5-.3l-.7-.2-.6.2c-.2,0-.3.1-.5.3s-.1.3-.2.5a.7.7,0,0,0-.1.5,1.7,1.7,0,0,0,.1.7l.2.5.5.3h1.3l.5-.3c.1-.2.2-.3.2-.5A1.7,1.7,0,0,0,268.1,802.3Zm6.4.1a2.8,2.8,0,0,1-.1.9,2.5,2.5,0,0,1-.4.7,2,2,0,0,1-.8.4l-1,.2-1-.2a2,2,0,0,1-.8-.4,2.5,2.5,0,0,1-.4-.7,2.8,2.8,0,0,1-.1-.9,2.2,2.2,0,0,1,.1-.8.5.5,0,0,1,.3-.5.8.8,0,0,1,.4-.4l.5-.2h0l-.5-.2-.4-.3c-.1-.2-.2-.3-.2-.5a.7.7,0,0,1-.1-.5,1.4,1.4,0,0,1,.2-.6.7.7,0,0,1,.4-.5c.1-.2.4-.3.6-.4h1.9l.7.4a1,1,0,0,1,.4.5,1.4,1.4,0,0,1,.2.6,4.3,4.3,0,0,1-.1.5l-.3.5-.3.3-.6.2h0l.6.2a.8.8,0,0,1,.4.4.5.5,0,0,1,.3.5A1.9,1.9,0,0,1,274.5,802.4Zm-1-3.3c0-.2-.1-.3-.1-.4s-.1-.3-.2-.3l-.4-.3h-1.2l-.4.3c-.1,0-.2.1-.2.3s-.1.2-.1.4a.8.8,0,0,0,.1.4c0,.1.1.2.2.3l.4.3h1.2l.4-.3c.1-.1.2-.2.2-.3S273.5,799.2,273.5,799.1Zm.1,3.2a1.3,1.3,0,0,0-.1-.6.8.8,0,0,0-.2-.4c-.1-.2-.2-.3-.4-.3l-.7-.2-.7.2c-.2,0-.3.1-.4.3l-.3.5V803l.3.5.4.3h1.4l.4-.3c.1-.2.2-.3.2-.5A1.7,1.7,0,0,0,273.6,802.3Zm5.7.8v1.5h-.9v-1.5h-3.2v-.7l3.1-5h1v5h.9v.7Zm-.9-4.6h0a.1.1,0,0,0-.1.1v.2c0,.1-.1.1-.1.2l-1.8,2.8h0a.1.1,0,0,0-.1.1v.2a.1.1,0,0,0-.1.1h2.4Zm7.2,4.1a2.8,2.8,0,0,1-.1.9l-.5.6-.7.4h-1l-1.1-.2-.7-.4-.4-.6a1.4,1.4,0,0,1-.2-.7h.9c0,.1.1.3.1.4l.3.4.5.3h.6a1.5,1.5,0,0,0,1-.3,1,1,0,0,0,.4-.9.8.8,0,0,0-.2-.6.8.8,0,0,0-.4-.4h-1.6v-.7h1l.5-.2a.8.8,0,0,0,.4-.4c.1-.1.1-.4.1-.6a1.2,1.2,0,0,0-.3-.9,1.1,1.1,0,0,0-1-.4,1.4,1.4,0,0,0-.9.3,1.8,1.8,0,0,0-.4.9H281a2.9,2.9,0,0,1,.2-.9l.5-.6.7-.3h1.8a1.8,1.8,0,0,1,.7.5.9.9,0,0,1,.4.6,1.5,1.5,0,0,1,.1.7,1.3,1.3,0,0,1-.1.6.8.8,0,0,1-.2.5l-.5.4-.6.2h0l.7.2a1,1,0,0,1,.5.4l.3.5A.7.7,0,0,1,285.6,802.6Zm5.6-.3a2.9,2.9,0,0,1-.2.9,1.2,1.2,0,0,1-.5.7,1.8,1.8,0,0,1-.7.5l-1.1.2h-.9l-.7-.4a1,1,0,0,1-.4-.5l-.3-.7h.9c.1.2.1.3.2.4l.2.3.5.3h1.2c.2,0,.3-.1.4-.3a.5.5,0,0,0,.3-.4,1.9,1.9,0,0,0,.2-.7c0-.2-.1-.4-.1-.6l-.3-.4c-.2-.2-.3-.3-.5-.3H288l-.3.2h-1.1l.3-3.9h3.9v.8h-3.1l-.2,2.4a.9.9,0,0,1,.6-.3l.9-.2.9.2.7.4a1.6,1.6,0,0,1,.4.7A2.4,2.4,0,0,1,291.2,802.3Z"/><path d="M313.6,803.1v1.5h-.8v-1.5h-3.3v-.7l3.2-5h.9v5h1v.7Zm-.8-4.6h-.1a.1.1,0,0,1-.1.1c0,.1,0,.2-.1.2v.2l-1.8,2.8a497582161915.7,497582161915.7,0,0,1-.2.2c0,.1,0,.1-.1.2h2.4Zm2.8,6.1v-.8h1.8v-5.5l-1.6,1.1v-.8l1.6-1.2h.9v6.4h1.6v.8Zm9.9-2a2.8,2.8,0,0,1-.1.9l-.5.6-.7.4h-1l-1.1-.2-.7-.4-.4-.6a1.4,1.4,0,0,1-.2-.7h.9c0,.1.1.3.1.4l.3.4.5.3h.6a1.5,1.5,0,0,0,1-.3,1,1,0,0,0,.4-.9.8.8,0,0,0-.2-.6.8.8,0,0,0-.4-.4h-1.6v-.7h1l.5-.2a.8.8,0,0,0,.4-.4c.1-.1.1-.4.1-.6a1.2,1.2,0,0,0-.3-.9,1.1,1.1,0,0,0-1-.4,1.2,1.2,0,0,0-.9.3,1.8,1.8,0,0,0-.4.9h-.9a2.9,2.9,0,0,1,.2-.9l.5-.6.7-.3h1.8a1.8,1.8,0,0,1,.7.5.9.9,0,0,1,.4.6,1.5,1.5,0,0,1,.1.7,1.3,1.3,0,0,1-.1.6.8.8,0,0,1-.2.5l-.5.4-.6.2h0l.7.2a1,1,0,0,1,.5.4l.3.5A.7.7,0,0,1,325.5,802.6Zm4.7.5v1.5h-.8v-1.5h-3.2v-.7l3.1-5h.9v5h1v.7Zm-.8-4.6h0a.1.1,0,0,0-.1.1.3.3,0,0,0-.1.2c-.1.1-.1.1-.1.2l-1.8,2.8a.1.1,0,0,1-.1.1h0v.2a.1.1,0,0,0-.1.1h2.4Zm7.1-.4-.9,1.6a8,8,0,0,0-.8,1.6c-.2.5-.3,1-.5,1.6a9.1,9.1,0,0,0-.1,1.7h-.9a9.7,9.7,0,0,1,.1-1.7l.6-1.6c.2-.6.5-1.1.7-1.6l1-1.5H332v-.8h4.5Zm5.6,4.5a2.8,2.8,0,0,1-.1.9l-.5.6-.7.4h-1l-1.1-.2-.7-.4-.4-.6a1.4,1.4,0,0,1-.2-.7h.9a.8.8,0,0,0,.2.4.5.5,0,0,0,.2.4l.5.3h.6a1.5,1.5,0,0,0,1-.3,1,1,0,0,0,.4-.9c0-.3,0-.5-.1-.6l-.5-.4h-1.5v-.7h.9l.5-.2a.8.8,0,0,0,.4-.4c.1-.1.1-.4.1-.6a1.2,1.2,0,0,0-.3-.9,1,1,0,0,0-.9-.4,1.7,1.7,0,0,0-1,.3,1.8,1.8,0,0,0-.4.9h-.9a3.2,3.2,0,0,1,.3-.9l.5-.6.6-.3h1.9a1.5,1.5,0,0,1,.6.5.9.9,0,0,1,.4.6,1.5,1.5,0,0,1,.1.7v.6l-.3.5-.4.4-.7.2h0l.7.2a1,1,0,0,1,.5.4.5.5,0,0,1,.3.5A.7.7,0,0,1,342.1,802.6Z"/></g></svg>