<svg xmlns="http://www.w3.org/2000/svg" viewBox="0 0 595.3 841.9"><rect width="595.3" height="841.89" fill="#fde9e1"/><g fill="#1d1d1b"><path d="M30.1,158.7a1.5,1.5,0,0,1-1.5-1.4h0V29.8a1.5,1.5,0,0,1,1.5-1.4H77.7a1.1,1.1,0,0,1,1.4.9V47.2a1.3,1.3,0,0,1-.9,1.5H51.1V82.9h21a1.2,1.2,0,0,1,1.4.9.6.6,0,0,1,0,.6v17.4c0,.9-.4,1.7-1.4,1.7h-21v35H77.7a1.1,1.1,0,0,1,1.4.9v17.9a1.2,1.2,0,0,1-.9,1.4.4.4,0,0,1-.5,0Z"/><path d="M88.5,158.7a1.1,1.1,0,0,1-1.4-.9.4.4,0,0,1,0-.5V29.8a1.1,1.1,0,0,1,.9-1.4h19.8a1.5,1.5,0,0,1,1.5,1.4h0V138.5h24.8a1.5,1.5,0,0,1,1.5,1.4h0v17.4a1.5,1.5,0,0,1-1.5,1.4H88.5Z"/><path d="M28.6,304.5V217.4c0-12.3,9.7-24.1,26.6-24.1s27.3,11.8,27.3,24.1v36.9A1.6,1.6,0,0,1,81,256H61.7c-.9,0-1.4-.7-1.4-1.7V218.1a4.9,4.9,0,0,0-4.6-4.6,4.6,4.6,0,0,0-4.8,4.4v85.7a4.6,4.6,0,0,0,4.5,4.6h.3a4.7,4.7,0,0,0,4.6-4.6V267.4a1.5,1.5,0,0,1,1.4-1.5H81a1.5,1.5,0,0,1,1.5,1.5h0v37.1c0,12.6-10.2,24.4-27.3,24.4s-26.6-11.8-26.6-24.4"/><path d="M89.7,304.5V217.4c0-12.3,9.7-24.1,26.6-24.1s27,11.8,27,24.1v87.1c0,12.6-9.9,24.4-27,24.4s-26.6-11.8-26.6-24.4M111,187.7c-1.2,0-1.6-.5-1.5-1.4l4.1-21.3a1.9,1.9,0,0,1,1.7-1.2H132c1.2,0,1.7.7,1.4,1.9l-7.7,21c-.2.8-.7,1-1.7,1Zm10.1,115.9V218.1a4.6,4.6,0,0,0-4.6-4.6,4.9,4.9,0,0,0-4.6,4.6v85.5a4.7,4.7,0,0,0,4.6,4.6,4.4,4.4,0,0,0,4.6-4.1v-.5"/><path d="M153.2,326.3a1.5,1.5,0,0,1-1.4-1.5h0V197.4a1.2,1.2,0,0,1,.9-1.5h25.6c16.9,0,27.1,11.6,27.1,24.1v82.1c0,12.3-10.2,24.2-27.1,24.2ZM174,305.7h4.6a4.8,4.8,0,0,0,4.5-4.5V220.8a4.5,4.5,0,0,0-4.5-4.6H174Z"/><path d="M215.3,326.3a1.3,1.3,0,0,1-1.5-.9v-128a1.3,1.3,0,0,1,.9-1.5h19.9a1.5,1.5,0,0,1,1.4,1.5h0V324.8a1.2,1.2,0,0,1-.9,1.5H215.3Z"/><path d="M244.5,304.5V217.4c0-12.3,9.6-24.1,26.5-24.1s27.1,11.8,27.1,24.1v29a1.5,1.5,0,0,1-1.5,1.4H278a1.1,1.1,0,0,1-1.4-.9.4.4,0,0,1,0-.5V218.6a5.4,5.4,0,0,0-5.3-5.1,5.1,5.1,0,0,0-5.1,5.1h0v84.7a4.8,4.8,0,0,0,4.8,4.9h.3a5.2,5.2,0,0,0,5.3-4.9h0V274.8h-3.9a1.1,1.1,0,0,1-1.4-.9.4.4,0,0,1,0-.5V256c0-.9.4-1.7,1.4-1.7h23.9a1.5,1.5,0,0,1,1.5,1.7v70a1.3,1.3,0,0,1-1,1.5H280.2a1.3,1.3,0,0,1-1.5-.9v-4.4h-.4c-2.7,4.1-8.5,6.7-15,6.7-13.8,0-18.8-11.8-18.8-24.4"/><path d="M306,304.5V217.4c0-12.3,9.7-24.1,26.6-24.1s27,11.8,27,24.1v87.1c0,12.6-9.9,24.4-27,24.4S306,317.1,306,304.5m31.4-.9V218.1a4.7,4.7,0,0,0-4.6-4.6,4.9,4.9,0,0,0-4.6,4.6v85.5a4.7,4.7,0,0,0,4.6,4.6,4.4,4.4,0,0,0,4.6-4.1v-.5"/><path d="M31.1,493.8a1.6,1.6,0,0,1-1.7-1.5V364.6c0-.9.7-1.4,1.7-1.4H56.2c16.9,0,27,11.8,27,24.4v81.8c0,12.6-10.1,24.4-27,24.4ZM51.8,473h4.6a4.6,4.6,0,0,0,4.6-4.6V388.3a4.7,4.7,0,0,0-4.6-4.6H51.8Z"/><path d="M93.1,493.8a1.5,1.5,0,0,1-1.4-1.5h0V364.6a1.1,1.1,0,0,1,.9-1.4h47.8a1.3,1.3,0,0,1,1.5.9v18.2a1.5,1.5,0,0,1-1.5,1.4H113.9v34.1h21a1.7,1.7,0,0,1,1.7,1.4v17.6a1.5,1.5,0,0,1-1.7,1.5h-21v35h26.5a1.2,1.2,0,0,1,1.5.9v18.1a1.5,1.5,0,0,1-1.5,1.5H93.1Z"/><path d="M177.1,493.8a1.5,1.5,0,0,1-1.4-1.5h0V364.6a1.1,1.1,0,0,1,.9-1.4h19.8a1.5,1.5,0,0,1,1.5,1.4h0V473.3h24.8a1.5,1.5,0,0,1,1.5,1.4h0v17.6a1.5,1.5,0,0,1-1.5,1.5H177.1Z"/><path d="M228.3,493.8c-1,0-1.7-.7-1.5-1.5l16-127.7c0-.9.7-1.4,1.7-1.4h24.8a1.6,1.6,0,0,1,1.7,1.4l15.7,127.7a1.3,1.3,0,0,1-.9,1.5H267.2a1.6,1.6,0,0,1-1.7-1.5l-2.7-23.1H250.7l-2.4,23.1a1.7,1.7,0,0,1-1.7,1.5Zm24.4-45.1h8.4l-3.8-45.4h-.8Z"/><path d="M31.1,661.1c-1,0-1.7-.5-1.7-1.5V532.2c0-1,.7-1.5,1.7-1.5h19c1,0,1.7.5,1.7,1.5V659.6c0,1-.7,1.5-1.7,1.5Z"/><path d="M94.1,532.2a1.5,1.5,0,0,1,1.4-1.5h17.6a1.3,1.3,0,0,1,1.5.9v128a1.3,1.3,0,0,1-.9,1.5H96.5a1.7,1.7,0,0,1-1.7-1.2l-13-65.4h-.5v65.1a1.3,1.3,0,0,1-.9,1.5h-18a1.2,1.2,0,0,1-1.4-.9v-128a1.3,1.3,0,0,1,.9-1.5H79.1c1,0,1.5.3,1.7,1.2l12.8,65.5h.5Z"/><path d="M125.2,661.1a1.2,1.2,0,0,1-1.4-.9.6.6,0,0,1,0-.6V532.2a1.2,1.2,0,0,1,.9-1.5h49.8a1.2,1.2,0,0,1,1.4.9v18a1.2,1.2,0,0,1-.9,1.4H146v35.5h21.9a1.6,1.6,0,0,1,1.7,1.4v17.7a1.6,1.6,0,0,1-1.7,1.4H146v52.6a1.3,1.3,0,0,1-.9,1.5H125.2Z"/><path d="M184.6,661.1a1.3,1.3,0,0,1-1.5-.9v-128a1.3,1.3,0,0,1,.9-1.5h19.9a1.5,1.5,0,0,1,1.5,1.5h0V640.8h24.8a1.3,1.3,0,0,1,1.5.9v17.9a1.3,1.3,0,0,1-.9,1.5H184.6Z"/><path d="M235.5,532.2a1.3,1.3,0,0,1,.9-1.5H256a1.3,1.3,0,0,1,1.5.9v107a4.8,4.8,0,0,0,4.8,4.6,4.5,4.5,0,0,0,4.6-4.6V532.2a1.3,1.3,0,0,1,.9-1.5h19.9a1.5,1.5,0,0,1,1.4,1.5h0V639.4c0,12.5-10.1,24.3-27.3,24.3s-26.3-11.8-26.3-24.3Z"/><path d="M298.8,661.1a1.5,1.5,0,0,1-1.5-1.5h0V532.2a1.5,1.5,0,0,1,1.5-1.5h47.5a1.3,1.3,0,0,1,1.5.9v18a1.2,1.2,0,0,1-.9,1.4H319.8v34.3h21a1.1,1.1,0,0,1,1.4.9.4.4,0,0,1,0,.5v17.4a1.2,1.2,0,0,1-.9,1.5H319.8v35.2h26.5a1.3,1.3,0,0,1,1.5.9v17.9a1.3,1.3,0,0,1-.9,1.5H298.8Z"/><path d="M389.1,532.2a1.2,1.2,0,0,1,.9-1.5h17.9a1.2,1.2,0,0,1,1.4.9.6.6,0,0,1,0,.6V659.6a1.2,1.2,0,0,1-.9,1.5H391.2a1.4,1.4,0,0,1-1.4-1.2l-13.3-65.4H376v65.1a1.2,1.2,0,0,1-.9,1.5H357.2a1.3,1.3,0,0,1-1.5-.9v-128a1.3,1.3,0,0,1,.9-1.5h17.3a1.4,1.4,0,0,1,1.6,1.2l12.8,65.5h.8Z"/><path d="M417.8,639.4V552.5c0-12.6,9.6-24.4,26.5-24.4s27.1,11.8,27.1,24.4v36.9a1.5,1.5,0,0,1-1.5,1.4H450.6a1.4,1.4,0,0,1-1.4-1.4h0V553.2a4.4,4.4,0,0,0-4.1-4.6h-.5a4.6,4.6,0,0,0-4.8,4.3v85.7a4.8,4.8,0,0,0,4.8,4.6,4.6,4.6,0,0,0,4.6-4.6V602.4a1.1,1.1,0,0,1,.9-1.4.4.4,0,0,1,.5,0h19.3a1.2,1.2,0,0,1,1.5.9v37.5c0,12.5-10.2,24.3-27.1,24.3s-26.5-11.8-26.5-24.3"/><path d="M481,661.1a1.2,1.2,0,0,1-1.4-.9.6.6,0,0,1,0-.6V532.2a1.2,1.2,0,0,1,.9-1.5h19.8a1.5,1.5,0,0,1,1.5,1.5h0V659.6a1.3,1.3,0,0,1-.9,1.5H481Z"/><path d="M508.8,661.1c-1,0-1.7-.5-1.5-1.5l16-127.7c0-.9.7-1.2,1.7-1.2h24.8c.8,0,1.5.3,1.5,1.2l15.9,127.7a1.3,1.3,0,0,1-.9,1.5H547.4a1.5,1.5,0,0,1-1.4-1.5h0l-2.7-23.1H531.2l-2.4,23.1a1.6,1.6,0,0,1-1.7,1.5Zm24.1-44.9h8.7l-4.1-45.4h-.7Z"/><path d="M211,812.9c-.2,0-.4-.1-.4-.3l3.7-29.2c0-.2.1-.3.4-.3h5.7a.3.3,0,0,1,.3.3l3.6,29.2q.1.3-.3.3h-4.2a.3.3,0,0,1-.3-.3l-.6-5.3h-2.8l-.5,5.3c0,.2-.3.3-.5.3Zm5.5-10.2h2l-.9-10.5h-.2Z"/><path d="M232,783.4a.3.3,0,0,1,.3-.3h4.4c.3,0,.4.2.3.4l-4.4,16.8v12.3a.3.3,0,0,1-.3.3h-4.4c-.2,0-.4-.1-.4-.3V800.3l-4.4-16.8c-.1-.2,0-.4.3-.4h4.3c.2,0,.4.1.4.3l1.9,10.2h.1Z"/><path d="M248.3,783.4c0-.2.2-.3.4-.3h4.9a.4.4,0,0,1,.3.4v29.1a.3.3,0,0,1-.3.3h-3.7a.3.3,0,0,1-.3-.3V794.4h-.1L248,812.6c0,.2-.2.3-.4.3h-3c-.2,0-.4-.1-.4-.3l-1.5-18.2h-.1v18.2a.3.3,0,0,1-.3.3h-3.7c-.1,0-.4-.1-.4-.3V783.5a.4.4,0,0,1,.4-.4h4.9c.2,0,.4.1.4.3l2.1,18.1h.2Z"/><path d="M255.5,812.9c-.2,0-.4-.1-.3-.3l3.6-29.2c0-.2.2-.3.4-.3h5.6c.2,0,.4.1.4.3h0l3.7,29.2a.3.3,0,0,1-.3.3h-4.3a.3.3,0,0,1-.3-.3l-.6-5.3h-2.8l-.5,5.3c0,.2-.2.3-.4.3Zm5.5-10.2h2l-.9-10.5h-.2Z"/><path d="M270.5,812.9c-.2,0-.4-.1-.4-.3V783.5a.4.4,0,0,1,.4-.4h5.7c3.9,0,6.2,2.7,6.2,5.6v5.9a4.6,4.6,0,0,1-2,3.9v.2a5,5,0,0,1,2,3.9v6.6a13.2,13.2,0,0,0,.2,3.4c.2.2,0,.3-.2.3H278c-.1.1-.3-.1-.4-.2h0a18.5,18.5,0,0,1-.2-4.1v-6.3a1.2,1.2,0,0,0-1.2-1h-1v11.4c0,.2-.2.3-.4.3Zm4.7-16.4h1.1a1.1,1.1,0,0,0,1.1-1.1v-6.6a1.1,1.1,0,0,0-1.1-1h-1.1Z"/><path d="M289.8,808V788.1c0-2.9,2.2-5.6,6.1-5.6s6.2,2.7,6.2,5.6v8.4a.3.3,0,0,1-.3.3h-4.4c-.2,0-.4-.1-.4-.3v-8.2a1,1,0,0,0-1-1.1,1.1,1.1,0,0,0-1.1,1.1h0v19.5a1.1,1.1,0,0,0,1,1h.1a1,1,0,0,0,1-1v-8.3a.4.4,0,0,1,.4-.4h4.4c.2,0,.3.2.3.4V808c0,2.8-2.3,5.5-6.2,5.5s-6.1-2.7-6.1-5.5"/><path d="M304.3,812.9c-.2,0-.4-.1-.4-.3V783.5a.4.4,0,0,1,.4-.4h10.8a.4.4,0,0,1,.4.4v3.9a.4.4,0,0,1-.4.4H309v7.8h4.9a.3.3,0,0,1,.3.3v4c0,.2-.1.4-.3.4H309v8h6.1c.2,0,.4.1.4.3v4c0,.2-.2.3-.4.3Z"/><path d="M317.6,812.9a.3.3,0,0,1-.3-.3V783.5c0-.2.1-.4.3-.4H322a.4.4,0,0,1,.4.4v24.8H328c.2,0,.4.1.4.3v4c0,.2-.2.3-.4.3Z"/><path d="M330.2,812.9c-.2,0-.4-.1-.4-.3V783.5a.4.4,0,0,1,.4-.4h5.7c3.9,0,6.2,2.7,6.2,5.6v18.7c0,2.9-2.3,5.5-6.2,5.5Zm4.7-4.6h1a1.1,1.1,0,0,0,1.1-1.1V788.8a1.1,1.1,0,0,0-1.1-1h-1Z"/><path d="M344.4,812.9c-.2,0-.4-.1-.4-.3V783.5a.4.4,0,0,1,.4-.4h5.7c3.9,0,6.2,2.7,6.2,5.6v5.9a4.6,4.6,0,0,1-2,3.9v.2a4.7,4.7,0,0,1,2,3.9v6.6a9.8,9.8,0,0,0,.3,3.4c.1.2-.1.3-.3.3H352c-.3,0-.4-.1-.4-.3a13.9,13.9,0,0,1-.3-4.1v-6.3a1.2,1.2,0,0,0-1.2-1h-1v11.4a.3.3,0,0,1-.3.3Zm4.7-16.4h1.1a1.1,1.1,0,0,0,1.1-1.1v-6.6a1.1,1.1,0,0,0-1.1-1h-1.1Z"/><path d="M357.7,812.9c-.2,0-.3-.1-.2-.3l3.6-29.2c0-.2.1-.3.4-.3h5.6c.2,0,.4.1.4.3l3.6,29.2c.1.2-.1.3-.3.3h-4.2c-.2,0-.4-.1-.4-.3l-.5-5.3h-2.8l-.6,5.3a.3.3,0,0,1-.3.3Zm5.6-10.2h1.9l-.9-10.5h-.1Z"/><path d="M380,783.5c0-.2.1-.4.3-.4h4a.4.4,0,0,1,.4.4v29.1c0,.2-.2.3-.4.3h-3.8c-.2,0-.3-.1-.4-.3l-3-14.9H377v14.9a.3.3,0,0,1-.3.3h-4c-.2,0-.4-.1-.4-.3V783.5a.4.4,0,0,1,.4-.4h3.8c.2,0,.4.1.4.3h0l3,15h.1Z"/><path d="M329.1,720.9a31.4,31.4,0,0,0-31.5-31.4h0v31.4Z"/><path d="M266.2,720.9a31.5,31.5,0,0,0,31.3,31.5h.1V720.9Z"/></g></svg>