<svg xmlns="http://www.w3.org/2000/svg" viewBox="0 0 1000 1000"><g fill="var(--title, #1d1d1b)"><circle cx="87.7" cy="140.1" r="16.3"/><path d="M87.7,179.2a39.1,39.1,0,1,1,39.1-39.1A39.1,39.1,0,0,1,87.7,179.2Zm0-69.5a30.5,30.5,0,1,0,30.5,30.4A30.5,30.5,0,0,0,87.7,109.7Z"/><path d="M818.2,962.4H500a2.1,2.1,0,0,1-1.6-.8,1.7,1.7,0,0,1-.6-1.6l4.7-62.6a2.2,2.2,0,0,1,2-2.1l56.4-6.4-2.7-39.3a2.2,2.2,0,0,1,1.7-2.3l101.3-26.4a2.3,2.3,0,0,1,2.4,1L690,864.3l26.1-17.2-89-158.9L590.2,706a2.3,2.3,0,0,1-1.8.1,2.5,2.5,0,0,1-1.3-1.4l-25.9-76.1a2.2,2.2,0,0,1,1-2.6c.3-.2,30-17.2,50.4-41.1,11.5-13.5,22.3-48,25-57.1l-38.5-9.1a2.2,2.2,0,0,1-1.7-2.4l4-35.1a2.4,2.4,0,0,1,2.2-2l36.4-.8a304.1,304.1,0,0,0-10.7-47c-11-35.6-28.3-48.2-28.5-48.3a2.2,2.2,0,0,1-.9-1.7,2.4,2.4,0,0,1,.7-1.8l88.8-83.9a2.2,2.2,0,0,1,3,0l38.5,36.1a2,2,0,0,1,.7,1.6,2.6,2.6,0,0,1-.7,1.7l-34.8,30.8,16.1,26.9L786.1,357a2.2,2.2,0,0,1,2.8.8c.5.8,11.4,18.4,23.1,61.5s7.3,64.1,7.1,65a2.3,2.3,0,0,1-2.2,1.8H775.2a2.3,2.3,0,0,1-2.2-2c-4.1-27.2-6.3-44.3-6.7-51-9.7,1.9-51.3,13.8-78.8,21.9,1.6,5.8,5,22.6,1.7,53.6-1.3,12.3-8.7,44.9-10.6,53l39.3,17.8a1.9,1.9,0,0,1,1.2,1.4,2.2,2.2,0,0,1-.2,1.8l-47.7,71.2,26.3,25.5,34.7-45a2.2,2.2,0,0,1,2.8-.6l120.3,62.6c5-11.1,28.5-63.9,39.6-109.7s15.1-93.9,16.4-109.7c.1-1.3.2-2.2.3-2.9-6.6-.6-31.5-.2-53.9.6a2.3,2.3,0,0,1-2.3-1.9L837.5,368a2.3,2.3,0,0,1,1.6-2.6l37.4-10.6-30.9-71.1-40.2,23.6a2.2,2.2,0,0,1-2.9-.6l-51-70.2-29,27.2a2.1,2.1,0,0,1-2.9.1l-45-36.2a2.3,2.3,0,0,1-.5-3l20.2-32c-3.8-3.2-17.7-13.4-56.4-29.7-48-20.3-85.1-23.3-85.5-23.4a1.9,1.9,0,0,1-1.5-.8,2.2,2.2,0,0,1-.5-1.7l7.1-51.5L518,82.4l-8.7,90.7a2.2,2.2,0,0,1-.8,1.5,2.2,2.2,0,0,1-1.7.5c-.2,0-26.1-2.4-81.5,11.7s-88.5,37.1-88.8,37.3a2.1,2.1,0,0,1-1.7.4,2.5,2.5,0,0,1-1.5-1L288,152.6l-27.8,16.2a2.4,2.4,0,0,1-3-.7l-16.9-24.6H122.1a2.3,2.3,0,0,1-2.2-2.3,2.2,2.2,0,0,1,2.2-2.2H241.4a2.2,2.2,0,0,1,1.9.9l16.4,24,27.9-16.3a2.2,2.2,0,0,1,3,.7l45.3,70.9c8-5.1,40.4-24.5,88.3-36.7s73.4-12.3,80.9-12l8.7-90.7a2.2,2.2,0,0,1,2.4-2l44,3.5a2.1,2.1,0,0,1,2,2.5l-7.1,51.5c9,1.1,42.8,5.8,84.5,23.4,48.8,20.6,58.9,31.5,59.3,32a2.4,2.4,0,0,1,.2,2.7L679,225.3l41.9,33.8,29.4-27.6a2.1,2.1,0,0,1,1.7-.6,2.6,2.6,0,0,1,1.6.9l51.3,70.6,40.6-23.8a2.5,2.5,0,0,1,1.9-.2,2.2,2.2,0,0,1,1.3,1.2l32.9,75.8a2.3,2.3,0,0,1,0,1.8,2.4,2.4,0,0,1-1.4,1.2l-38,10.8,17.3,100.9,25.8-.7c29-.6,29.6.3,30.5,1.6a2.5,2.5,0,0,1,.4,1.9c-.1.5-.2,2.3-.4,4.4-1.4,15.9-5.5,64.2-16.6,110.4-12.5,51.6-40.6,112-40.8,112.6a2.8,2.8,0,0,1-1.4,1.2,2.5,2.5,0,0,1-1.7-.2L734.6,638.5,699.5,684a2.6,2.6,0,0,1-1.6.9,2.4,2.4,0,0,1-1.8-.7l-29.4-28.5a2.3,2.3,0,0,1-.3-2.9l47.3-70.5-38.6-17.4a2.1,2.1,0,0,1-1.2-2.5c.1-.4,9.4-40.7,10.9-54.2,4-37.5-2.2-53.7-2.2-53.9a2.3,2.3,0,0,1,0-1.8,2.2,2.2,0,0,1,1.4-1.1c.2-.1,20.8-6.2,41.4-12,42.8-12.2,43.3-11.6,44.6-10.3a2.7,2.7,0,0,1,.6,2.1c-.2,3.1,3.7,31.7,6.5,50.4H815c.8-5.8,2.3-25.9-7.3-61.1s-18.6-53.2-21.5-58.6l-73.8,35.9a2.2,2.2,0,0,1-2.9-.9l-18.2-30.3a2.3,2.3,0,0,1,.5-2.8l34.3-30.5-35.2-32.9-85.4,80.7c5.2,4.6,18.7,18.8,28.1,49s11.1,50,11.1,50.2a1.8,1.8,0,0,1-.6,1.7,1.9,1.9,0,0,1-1.6.8l-36.8.9-3.6,31.1,38.8,9.2a2.2,2.2,0,0,1,1.4,1.1,2,2,0,0,1,.2,1.7c-.5,1.8-12.6,44.7-26.5,61-18.2,21.3-43.4,37.2-50,41.1l24.5,72,36.6-17.7a2.2,2.2,0,0,1,2.9,1l91.1,162.5a2.4,2.4,0,0,1-.8,3l-29.7,19.6a2.9,2.9,0,0,1-1.8.3,2.3,2.3,0,0,1-1.4-1l-26.7-42.9-97.9,25.5,2.7,39.5a2.2,2.2,0,0,1-1.9,2.4l-56.8,6.5-4.4,58.3H818.2a2.3,2.3,0,1,1,0,4.5Zm97.9-489.2ZM770.5,431.5Zm0-.1h0Z"/><polygon points="880.8 958.1 805.5 984.1 805.5 932.1 880.8 958.1"/></g><g fill="var(--main, #fce4da)"><path d="M472.6,933.6c-54.3,0-107.5-11.6-158.1-34.5-49-22.3-93.2-54-131.4-94.3A444.5,444.5,0,0,1,93.2,665.1,452.8,452.8,0,0,1,59.9,493.8c0-142.4,54-251.6,165.1-333.8a8.6,8.6,0,0,1,12,1.8,8.5,8.5,0,0,1-1.8,11.9C128.7,252.4,77,357.2,77,493.8,77,723,258.2,916.6,472.6,916.6a8.5,8.5,0,0,1,0,17Z"/><path d="M532.4,933.6a8.5,8.5,0,0,1,0-17c216.1,0,391.8-189.7,391.8-422.8S734.2,70.2,500.6,70.2c-91.7,0-158.2,21.6-229.7,74.5a8.6,8.6,0,0,1-12-1.8,8.5,8.5,0,0,1,1.8-11.9c74.7-55.3,144.2-77.8,239.9-77.8A440.5,440.5,0,0,1,941.3,493.8a463.2,463.2,0,0,1-32.5,171.3,444.2,444.2,0,0,1-88.3,139.7C782.8,845.1,739,876.9,690.4,899A377.6,377.6,0,0,1,532.4,933.6Z"/><path d="M338.2,205a8.6,8.6,0,0,1-7.5-4.5l-42.4-79.2a8.5,8.5,0,1,1,15-8.1l38.8,72.5,46.6-19-8-27.1-25.9,9.6a8.5,8.5,0,1,1-5.9-16l34.4-12.8a8.5,8.5,0,0,1,6.8.4,8,8,0,0,1,4.3,5.2l12.8,43.2a8.4,8.4,0,0,1-4.9,10.3l-60.9,24.9A8.7,8.7,0,0,1,338.2,205Z"/><path d="M419.9,125.8a8.5,8.5,0,0,1-1-17l67.7-8V61.7a8.6,8.6,0,0,1,17.1,0v46.7a8.5,8.5,0,0,1-7.5,8.4l-75.3,8.9Z"/><path d="M463.9,165.4a8.6,8.6,0,0,1-8.4-7.3L449.1,114a8.4,8.4,0,0,1,7.2-9.6,8.5,8.5,0,0,1,9.7,7.2l6.4,44a8.6,8.6,0,0,1-7.2,9.7Z"/><path d="M791.5,253.8a8.5,8.5,0,0,1-7-3.6c-.4-.5-36.6-50.8-105.8-85.7-33.6-17-108.3-38.9-109-39.1a8.5,8.5,0,0,1-6-9.9c4.1-20,8.5-42.7,9.1-46.6a5,5,0,0,1,.2-1.2,8.5,8.5,0,0,1,9.9-6.9,9.1,9.1,0,0,1,5.5,3.7c2.1,3,1.8,4.5,0,14-.8,4.1-1.8,9.6-3.2,16.6l-3.3,16.2c20.2,6.1,75.6,23.3,104.5,37.9,73.1,37,110.5,89,112,91.2a8.6,8.6,0,0,1-2,11.9A8.8,8.8,0,0,1,791.5,253.8ZM572.8,69.4a8.4,8.4,0,0,0,7,8.2A8.4,8.4,0,0,1,572.8,69.4Z"/><path d="M237.3,367.5a8,8,0,0,1-4.2-1.1l-73.7-41.6a8.5,8.5,0,0,1-3.3-11.4c1.2-2.3,30.6-57.6,61.7-87.1,23.1-21.8,62.5-55.2,62.8-55.6a8.7,8.7,0,0,1,12.1,1,8.5,8.5,0,0,1-1,12c-.4.4-39.4,33.5-62.1,55s-45.4,59.5-54.4,75.4l58.5,33.1c11.5-21.4,47-78.8,116.2-116.9,75.5-41.6,143.4-43.6,166.6-42.8l9.4-75.8a8.6,8.6,0,1,1,17,2.2l-10.4,83.6a8.6,8.6,0,0,1-9.4,7.4c-.8,0-78.5-7.3-164.9,40.3-79.7,44-112.8,116.6-113.1,117.3a8.3,8.3,0,0,1-5.1,4.6A8.4,8.4,0,0,1,237.3,367.5Z"/><path d="M233.3,292.3a8.6,8.6,0,0,1-6-14.6l48-47.8a8.8,8.8,0,0,1,6.1-2.5,8.6,8.6,0,0,1,6.1,2.5l30.1,30.9a8.5,8.5,0,0,1-12.2,11.9L281.3,248l-42,41.8A8.6,8.6,0,0,1,233.3,292.3Z"/><path d="M638.5,238.6a8.5,8.5,0,0,1-7.6-12.3l14.8-29.7c-8.2-4.2-24.5-11.7-50.4-19.2-40.3-11.6-66.7-14.6-67-14.7a8.5,8.5,0,1,1,1.9-16.9c1.1.1,28,3.2,69.8,15.2s61,24.7,61.7,25.2a8.5,8.5,0,0,1,2.9,10.9l-18.5,36.8A8.5,8.5,0,0,1,638.5,238.6Z"/><path d="M711.4,238.6a8.9,8.9,0,0,1-5.6-2,8.7,8.7,0,0,1-.9-12.1l28.8-33.6a8.5,8.5,0,0,1,13,11.1l-28.8,33.6A8.5,8.5,0,0,1,711.4,238.6Z"/><path d="M879.6,532.5h-.9l-41.6-4a8.6,8.6,0,0,1-7.7-9.2c0-.5,4.1-59.3-12.1-119.2-13.3-49.1-46-95.7-58.6-112.4L731,308.9a8.6,8.6,0,0,1-11.7-1.2c-.3-.4-32.3-37.7-60.5-55.2s-72.6-35.3-80-37.1a8.5,8.5,0,0,1-2.2-16.6c2.7-.9,5.4-1.9,37.9,12.3,12.3,5.3,35.7,16,53.3,27,23.5,14.6,48.4,40.6,59.1,52.5L755,269a8.6,8.6,0,0,1,11.8,1.3c2,2.5,49.4,60.6,67,125.3,13.5,49.9,13.6,97.8,13,116.7l33.6,3.2a8.5,8.5,0,0,1-.8,17ZM581.9,215Zm0,0Z"/><path d="M809.9,289.1a8.7,8.7,0,0,1-7.2-3.9,8.6,8.6,0,0,1,2.5-11.8l43.3-28a8.5,8.5,0,0,1,11.8,2.5,8.7,8.7,0,0,1-2.5,11.8l-43.3,28A8.6,8.6,0,0,1,809.9,289.1Z"/><path d="M879.5,462a8.4,8.4,0,0,1-8.3-6.7L856,382.4a8.5,8.5,0,0,1,6.2-10l49.6-13.1a8.5,8.5,0,1,1,4.4,16.5l-41.9,11,13.6,65a8.5,8.5,0,0,1-6.6,10.1Z"/><path d="M721,380.4a8.6,8.6,0,0,1-3.9-16.2l115.3-58.4a8.4,8.4,0,0,1,6.6-.5,8.3,8.3,0,0,1,4.9,4.3l16.8,33.6a8.5,8.5,0,0,1-15.2,7.6l-13-25.9L724.8,379.4A7.5,7.5,0,0,1,721,380.4Z"/><path d="M254.1,428.4a6.7,6.7,0,0,1-2.4-.4L132.3,392a8.7,8.7,0,0,1-5-4.2,8.2,8.2,0,0,1-.6-6.5l8.9-28L96,335.9a8.6,8.6,0,0,1,6.9-15.7l46.6,20.6a8.4,8.4,0,0,1,4.6,10.4l-8.5,27,111,33.5a8.5,8.5,0,0,1-2.5,16.7Z"/><path d="M247,528.5a9,9,0,0,1-2.8-.4,8.6,8.6,0,0,1-5.6-9.9c-.1-1-.3-2.3-.4-3.5-2.1-17.1-7.5-62.6,13.6-114.1,26.2-63.7,78.7-107.9,81-109.8a8.5,8.5,0,0,1,10.9,13.1c-.5.4-51.6,43.5-76.1,103.2-19.4,47.4-14.4,89.6-12.5,105.6.8,6.8,1.3,10.6-2.7,13.9A8.9,8.9,0,0,1,247,528.5Zm2.6-16.6Z"/><path d="M399.1,313.9a8.5,8.5,0,0,1-7.3-4.2l-41.7-69.4a8.6,8.6,0,0,1,14.7-8.8L406.4,301a8.6,8.6,0,0,1-2.9,11.7A8.8,8.8,0,0,1,399.1,313.9Z"/><path d="M361.4,341.9a8.6,8.6,0,0,1-5.9-2.4,8.4,8.4,0,0,1-.2-12c1-1.1,26.5-27.4,72.4-42.3,53.6-17.3,88.6-10.1,90.1-9.8a8.5,8.5,0,0,1-3.6,16.7c-.3-.1-32.4-6.4-81.3,9.4-41.5,13.4-65.1,37.5-65.3,37.8A8.7,8.7,0,0,1,361.4,341.9Z"/><path d="M419.9,261a8.5,8.5,0,0,1-1.8-16.8l45.3-9.6-3.8-34.5a8.6,8.6,0,0,1,17-1.9l4.6,42.2a8.4,8.4,0,0,1-6.7,9.2l-52.8,11.3Z"/><path d="M576,351.1a8.4,8.4,0,0,1-2.7-.4l-60.1-20.4a8.6,8.6,0,0,1-5.7-8.7l5.6-86.2a8.5,8.5,0,1,1,17,1.1l-5.2,79.7,53.9,18.3a8.5,8.5,0,0,1-2.8,16.6Z"/><path d="M620.1,462a8.4,8.4,0,0,1-7.8-5.1,224.4,224.4,0,0,0-25.5-42.4l-32.5-29.1a8.5,8.5,0,0,1-1.8-10.3l38.4-73.7a8.5,8.5,0,0,1,12.2-3.2l28.8,18.5L649.4,295c-6.6-4.5-17.4-11.6-30.7-19.2-10.4-5.9-29.7-14.2-41-18.9l-9.4,34.6a8.6,8.6,0,1,1-16.5-4.5l12-43.9a8.8,8.8,0,0,1,4.4-5.4,8.6,8.6,0,0,1,7-.3c1.5.6,35.7,14.3,52,23.6a435.1,435.1,0,0,1,39.7,25.5,8.8,8.8,0,0,1,3.3,5.8,8.6,8.6,0,0,1-1.8,6.4l-28.1,34.7a8.4,8.4,0,0,1-11.2,1.8l-27.4-17.6-31,59.5,28.1,25.2,1,1.1a238.3,238.3,0,0,1,28.1,46.7,8.4,8.4,0,0,1-4.5,11.2A7.5,7.5,0,0,1,620.1,462Z"/><path d="M160.1,474.2h-1.4l-37.9-6a8.5,8.5,0,0,1-7.2-9.1l3.3-39.8a8.5,8.5,0,0,1,17,1.4l-2.7,31.9,22.1,3.5,12.6-61.9a8.5,8.5,0,0,1,10.1-6.7,8.4,8.4,0,0,1,6.6,10l-14.2,70A8.5,8.5,0,0,1,160.1,474.2Z"/><path d="M70.9,549.1a8.6,8.6,0,0,1-.5-17.1c4.3-.3,81.2-9.4,132-15.5a8.6,8.6,0,1,1,2,17c-21.5,2.5-129.1,15.4-133,15.6Z"/><path d="M218.7,590.9a8.5,8.5,0,0,1-7.9-5.4c-.3-.9-8.4-21.3-12.5-51.6s-3.5-66.8-3.4-68.3a8.4,8.4,0,0,1,8.6-8.4,8.5,8.5,0,0,1,8.4,8.7c0,.3-.6,37.2,3.3,65.7a240.5,240.5,0,0,0,8.9,40.1l111.5-35.5a8.6,8.6,0,0,1,5.2,16.3l-119.5,38A11.7,11.7,0,0,1,218.7,590.9Z"/><path d="M349,422.9a8.5,8.5,0,0,1-3.8-.9l-37.5-18.6a8.5,8.5,0,0,1-3.4-12.2l19.1-30.4L297.9,340a8.6,8.6,0,0,1-1.2-12,8.5,8.5,0,0,1,12-1.2l31.4,25.6a8.6,8.6,0,0,1,1.8,11.2l-18.2,28.7,29.1,14.5a8.5,8.5,0,0,1-3.8,16.1Z"/><path d="M331.3,486.9h-.7a8.7,8.7,0,0,1-7.8-9.3c.3-2.5,5.9-63.5,37.9-95.3,40.1-39.8,84.5-56.2,86.3-56.9a8.4,8.4,0,0,1,6.6.3,8.2,8.2,0,0,1,4.4,4.9l12,34.2a8.4,8.4,0,0,1-5.2,10.8,8.5,8.5,0,0,1-10.9-5.2l-9-25.6c-14.1,6.4-44.5,22.2-72.2,49.7s-32.8,84-32.9,84.6A8.6,8.6,0,0,1,331.3,486.9Z"/><path d="M288.7,480.9H288l-43.7-3.3a8.6,8.6,0,0,1-.1-17.1l37.4,2.8,5.8-34a8.5,8.5,0,1,1,16.8,2.9l-7.1,41.6A8.6,8.6,0,0,1,288.7,480.9Z"/><path d="M122.1,541.3a8.6,8.6,0,0,1-8.5-7.8l-3.3-38.9a8.5,8.5,0,1,1,16.9-1.5l3.4,38.9a8.6,8.6,0,0,1-7.8,9.3Z"/><path d="M88.3,632.1a8.5,8.5,0,0,1-2.6-16.6l91.8-29.3a8.5,8.5,0,0,1,5.2,16.2L90.9,631.7A8.2,8.2,0,0,1,88.3,632.1Z"/><path d="M137.2,613.5a8.5,8.5,0,0,1-8.2-6.2L118.5,570a8.6,8.6,0,0,1,16.5-4.6l10.4,37.3a8.6,8.6,0,0,1-5.9,10.5Z"/><path d="M430,745.5a8.7,8.7,0,0,1-2.8-.5c-2.3-.8-56.5-19.9-94.1-47.9-24.1-18-48.3-53.6-58-68.7L172.2,685.7a8.5,8.5,0,0,1-11.6-3.3,8.5,8.5,0,0,1,3.3-11.6l110-61.3a8.4,8.4,0,0,1,11.4,3.1c.3.5,30.2,50.1,58,70.8,35.4,26.4,88.9,45.3,89.5,45.5a8.6,8.6,0,0,1-2.8,16.6Z"/><path d="M514.1,712.6a258.5,258.5,0,0,1-46.3-4.4c-31.1-5.7-76.4-20-116-55.6-55.8-50-70.9-134.3-71.5-137.8a8.5,8.5,0,1,1,16.8-2.9c.2,1,14.9,82.1,66.1,128.1,70.2,63,161,55.2,161.9,55.1a8.5,8.5,0,1,1,1.6,17C526.3,712.1,521.8,712.6,514.1,712.6Z"/><path d="M186.1,718.1a8.5,8.5,0,0,1-7.5-4.4l-37.9-68.6a8.5,8.5,0,0,1,3.4-11.6,8.3,8.3,0,0,1,11.5,3.4l37.9,68.6a8.4,8.4,0,0,1-7.4,12.6Z"/><path d="M270.8,692.8a8.6,8.6,0,0,1-7.2-3.9l-29.7-46.7a8.5,8.5,0,1,1,14.3-9.2L278,679.7a8.5,8.5,0,0,1-7.2,13.1Z"/><path d="M264.7,864.5a8.4,8.4,0,0,1-4.6-1.3,8.6,8.6,0,0,1-2.6-11.8l22.9-35.8-21.6-20.5a8.5,8.5,0,0,1-.8-11.4l73.5-94a8.5,8.5,0,1,1,13.4,10.5l-68.7,87.9,21.1,20a8.5,8.5,0,0,1,1.3,10.7l-26.7,41.8A8.6,8.6,0,0,1,264.7,864.5Z"/><path d="M174.3,774.8a8.5,8.5,0,0,1-5.7-14.9l33.1-29.4a8.6,8.6,0,0,1,12.1.8L237.1,758a8.5,8.5,0,1,1-12.8,11.2L206.6,749l-26.7,23.6A8.1,8.1,0,0,1,174.3,774.8Z"/><path d="M472.6,838.8h-.9c-3.9-.4-94.3-11.1-150.2-48-20.2-13.4-66.2-56.2-81.3-70.3l-4.6-4.2a8.6,8.6,0,0,1-1.6-11.4,8.5,8.5,0,0,1,11.8-2.3c.7.5.7.5,6,5.5,14.9,13.8,60,55.9,79.1,68.5,52.4,34.6,141.8,45.2,142.7,45.3a8.5,8.5,0,0,1,7.5,9.4A8.6,8.6,0,0,1,472.6,838.8ZM235.7,716.3l.6.4Z"/><path d="M476,796.8h-.5a377.9,377.9,0,0,1-64.2-10.3c-36.9-9-54.2-23.9-54.9-24.5a8.4,8.4,0,0,1-.8-12,8.5,8.5,0,0,1,12-.9c.3.3,15.4,12.9,47.7,20.9a395.2,395.2,0,0,0,52.8,9.1l6.1-77.9a8.5,8.5,0,0,1,9.2-7.8,8.7,8.7,0,0,1,7.9,9.2l-6.8,86.3A8.6,8.6,0,0,1,476,796.8Z"/><path d="M521.2,879.6c-25.4,0-70.7-.9-107.3-7-53.9-8.8-91-34.3-92.6-35.4a8.5,8.5,0,0,1,9.7-14h0c.4.3,35.7,24.4,85.7,32.6,40.3,6.6,93.3,6.9,114.4,6.7-3.3-31.4-7.6-71.7-8.2-76.5a11,11,0,0,1-.2-1.8,8.6,8.6,0,0,1,8.1-8.5c.8,0,8-.2,9.1,8.4,0,.7.2,1.7.3,2.9s.6,5.8,1.1,9.8c.9,8.2,2,19,3.2,29.8l4.6,43.4a8.6,8.6,0,0,1-2.1,6.5,8.7,8.7,0,0,1-6.2,2.9C539.9,879.4,532.5,879.6,521.2,879.6Z"/><path d="M589.2,921.4a8.5,8.5,0,0,1-8.3-6.8l-10-48a8.5,8.5,0,0,1,1.2-6.4,8.8,8.8,0,0,1,5.5-3.7c13.9-2.8,30.5-6.4,34.5-7.8a8.5,8.5,0,0,1,12.3,10.6c-1.9,4.4-5.8,5.5-11.8,7-3.2.8-7.6,1.9-13.1,3.1l-10.2,2.1,8.3,39.6a8.6,8.6,0,0,1-6.6,10.1Zm19.5-68.8Zm0,0Zm0,0Zm0,0Zm0,0Zm0,0Zm0,0Zm.1,0Zm0,0Zm0,0Z"/><path d="M671.9,893a8.6,8.6,0,0,1-7.7-4.8l-20-40.9a8.6,8.6,0,0,1,3.9-11.4,8.5,8.5,0,0,1,11.4,3.9l20,40.9a8.6,8.6,0,0,1-7.6,12.3Z"/><path d="M536.3,838.8a8.6,8.6,0,0,1-.7-17.1h0c.2,0,24.2-2,60.2-11.1s60.9-25.9,61.1-26.1a8.6,8.6,0,0,1,11.9,2.3,8.5,8.5,0,0,1-2.3,11.8c-1.1.8-28.2,19-66.5,28.6s-62,11.4-63,11.5Z"/><path d="M687.2,836.2a8.7,8.7,0,0,1-7.4-4.3L620.6,729c-9.1,4.6-25.2,12-42,16.2a364.5,364.5,0,0,1-49.9,8.4,8.6,8.6,0,0,1-9.3-7.8,8.5,8.5,0,0,1,7.8-9.2,356.1,356.1,0,0,0,47.3-7.9c22.6-5.7,44.9-18.4,45.2-18.5a8.6,8.6,0,0,1,11.6,3.2l63.3,110a8.6,8.6,0,0,1-3.1,11.6A8.5,8.5,0,0,1,687.2,836.2Z"/><path d="M589.2,784a8.6,8.6,0,0,1-8.1-5.9L529.3,619.6a8.5,8.5,0,0,1,5.4-10.7,8.6,8.6,0,0,1,10.8,5.4l51.8,158.5a8.4,8.4,0,0,1-8.1,11.2Z"/><path d="M746.2,858a8.3,8.3,0,0,1-7.1-3.8l-29-43.2a8.6,8.6,0,0,1,1.6-11.3l58-48.6a8.4,8.4,0,0,1,12,1,8.5,8.5,0,0,1-1,12l-52.2,43.8,24.8,36.8a8.7,8.7,0,0,1-2.4,11.9A8.9,8.9,0,0,1,746.2,858Z"/><path d="M746.2,790.4a8.3,8.3,0,0,1-6.2-2.6l-29-30.3a8.6,8.6,0,0,1,12.4-11.8L752.3,776a8.4,8.4,0,0,1-6.1,14.4Z"/><path d="M599,688.2a8.8,8.8,0,0,1-7.1-3.8,8.5,8.5,0,0,1,2.3-11.8l38-25.6a8.5,8.5,0,0,1,11.8,2.3,8.6,8.6,0,0,1-2.3,11.9l-37.9,25.5A8.5,8.5,0,0,1,599,688.2Z"/><path d="M490.5,669.6h-8.1c-35.5-1.5-63.1-17.1-64.3-17.8a8.5,8.5,0,0,1,8.5-14.8h0c.3.2,25.3,14.3,56.5,15.5s64-6.5,64.4-6.6a8.5,8.5,0,0,1,4.1,16.6A285.1,285.1,0,0,1,490.5,669.6Z"/><path d="M862,739.5a8.8,8.8,0,0,1-4.9-1.5l-35.4-24.4-17.1,22.5a8.6,8.6,0,0,1-11.9,1.7l-62.5-46.9-33,32.8a8.7,8.7,0,0,1-6.3,2.4,8.4,8.4,0,0,1-6.2-3l-80.3-94a8.4,8.4,0,0,1-2-6.3,8.2,8.2,0,0,1,3.1-5.8c.4-.3,37.7-31.3,50.8-88.7,7.5-32.8-2.7-86.1-2.8-86.7a8.5,8.5,0,0,1,5.9-9.7l121.3-37a8.5,8.5,0,0,1,10.9,6.8c3.8,23,8.6,48.9,10.5,55.1.1,0,.1.1.2.2a8.5,8.5,0,0,1-2.4,11.8,8.7,8.7,0,0,1-8.3.7c-4.7-2-5.7-6.5-7.7-15.5-1.1-5-2.5-11.9-4-20.4s-2.6-14.2-3.5-19.6L671.6,446c2.7,16.7,7.9,57.3,1.3,86.1-11.1,49-37.8,80-50.2,92.2l69,80.8,31.7-31.5a8.5,8.5,0,0,1,11.1-.8L796.2,719,813,696.8a8.5,8.5,0,0,1,11.7-1.9l42.1,29a8.6,8.6,0,0,1-4.8,15.6ZM790.4,454.6Zm.1,0Z"/><path d="M837.8,675.4a7.8,7.8,0,0,1-3.9-1l-112-58.2a8.4,8.4,0,0,1-3.6-11.5,8.6,8.6,0,0,1,11.5-3.6l104,54c7.5-16.7,24.5-56,32.5-84.4,10.1-36.2,7.7-82.7,7.6-83.2a8.6,8.6,0,1,1,17.1-.9c.1,2,2.6,49.8-8.3,88.7s-36.1,92.8-37.2,95.1a7.8,7.8,0,0,1-4.9,4.5A9.2,9.2,0,0,1,837.8,675.4Z"/><path d="M697.2,662.6a8.2,8.2,0,0,1-5.1-1.7,8.5,8.5,0,0,1-1.8-11.9,395.6,395.6,0,0,0,28-44.4c5.2-9.6,11.9-23.5,16.1-32.4l-34.5-11.1a8.4,8.4,0,0,1-5.8-9.1l10-83.3a8.4,8.4,0,0,1,7.5-7.5l44.6-4.7a9,9,0,0,1,7.1,2.6,8.6,8.6,0,0,1,2.2,7.2l-5.8,39.2,38.1,6.1a8.3,8.3,0,0,1,5.6,3.4,8.5,8.5,0,0,1,1.5,6.4l-8.2,49.5,32.1,9.2a8.5,8.5,0,1,1-4.7,16.4l-39.4-11.4a8.5,8.5,0,0,1-6.1-9.6l8.1-48.4-38-6.1a8.5,8.5,0,0,1-7.1-9.6l5.5-36.8-26.9,2.9L711.8,547l37,11.9a8.3,8.3,0,0,1,5.2,4.7,8,8,0,0,1-.1,6.9c-.5,1.1-12.2,26.7-20.5,42.2a429.3,429.3,0,0,1-29.3,46.4A8.6,8.6,0,0,1,697.2,662.6Z"/><path d="M661.7,636.4a8.7,8.7,0,0,1-4.8-1.5,8.4,8.4,0,0,1-2.2-11.8l19.8-29-28.8-13.8a8.5,8.5,0,0,1-4.1-11.3,8.6,8.6,0,0,1,11.4-4.1L690.9,583a8.6,8.6,0,0,1,4.5,5.5,8.3,8.3,0,0,1-1.2,7l-25.4,37.2A8.7,8.7,0,0,1,661.7,636.4Z"/><path d="M628.1,393.3a8.6,8.6,0,0,1-6.6-3.1,8.5,8.5,0,0,1,1.1-12l69.2-57a8.5,8.5,0,0,1,12,1.1,8.5,8.5,0,0,1-1.2,12l-69.1,57A8.1,8.1,0,0,1,628.1,393.3Z"/><path d="M698.7,429a8.4,8.4,0,0,1-7.4-4.4L657,363.2a8.5,8.5,0,0,1,3.3-11.6,8.5,8.5,0,0,1,11.6,3.3l34.2,61.4a8.5,8.5,0,0,1-3.2,11.6A9.4,9.4,0,0,1,698.7,429Z"/><path d="M507.2,629.5c-40.5,0-86.4-17.9-110.8-47.1A126.9,126.9,0,0,1,372,535c-8-29-6.1-60.1,5.6-92.4,12.3-33.9,40.2-59.1,80.9-72.9A209.4,209.4,0,0,1,515.9,359h.1a8.6,8.6,0,0,1,.1,17.1,189.6,189.6,0,0,0-52.6,9.9c-35.8,12.3-59.3,33.3-69.8,62.4-24.5,67.6,5.8,111.3,15.7,123.1,13.7,16.2,36.7,29.5,63.1,36.3s51.9,6.2,70-1.9c38.9-17.4,64.3-58.1,64.6-58.5a8.5,8.5,0,1,1,14.5,9c-1.1,1.8-28.3,45.4-72.1,65C537.1,627,522.6,629.5,507.2,629.5Z"/><path d="M582.3,597.8a8.4,8.4,0,0,1-6.2-2.7l-27.5-29.8a8.3,8.3,0,0,1-2.2-6.7,8.1,8.1,0,0,1,3.7-6.1c1.2-.9,31.5-22.4,23.8-69-7.3-44.2-41.8-64.3-70.9-64.3h-.3c-29.8.2-47.9,13.2-57.9,24.2-13.8,15-21.4,36.4-19.8,55.7,5,60.1,69.3,72,69.9,72.1A8.5,8.5,0,1,1,492,588a119.8,119.8,0,0,1-39.4-15.8c-26.7-16.6-42.1-41.3-44.6-71.7-2-24.3,7.1-50,24.2-68.7,12.3-13.4,34.5-29.4,70.4-29.6h.4c36.1,0,78.8,24.5,87.8,78.5,7,42.6-12.4,68.4-23.7,79.6l21.5,23.2a8.5,8.5,0,0,1-.5,12.1A8.4,8.4,0,0,1,582.3,597.8Z"/><path d="M664.4,514.7h-.3l-39.4-1.5a8.5,8.5,0,1,1,.6-17l39.4,1.4a8.6,8.6,0,0,1,8.2,8.9A8.4,8.4,0,0,1,664.4,514.7Z"/><path d="M563.3,447.6a8.5,8.5,0,0,1-5-15.4l34.1-24.7a8.5,8.5,0,0,1,11.9,1.9,8.6,8.6,0,0,1-1.9,11.9L568.3,446A8.3,8.3,0,0,1,563.3,447.6Z"/><path d="M367,612.7a8.6,8.6,0,0,1-6.8-3.4,8.5,8.5,0,0,1,1.7-11.9l35.8-27.3a8.6,8.6,0,0,1,10.4,13.6L372.2,611A9.2,9.2,0,0,1,367,612.7Z"/></g></svg>