<svg xmlns="http://www.w3.org/2000/svg" viewBox="0 0 530 80"><g fill="var(--title,#1d1d1b)"><path d="M79.9,40a40,40,0,0,0-40-40h0V40Z"/><path d="M0,40A39.9,39.9,0,0,0,39.8,80h.1V40Z"/><path d="M99.5,58.6a.5.5,0,0,1-.5-.5V16.9a.5.5,0,0,1,.5-.5h15.4a.5.5,0,0,1,.5.5v5.6a.5.5,0,0,1-.5.5h-8.6V34.1h6.8a.5.5,0,0,1,.5.5v5.6a.5.5,0,0,1-.5.5h-6.8V52.1h8.6a.5.5,0,0,1,.5.5v5.6a.5.5,0,0,1-.5.5Z"/><path d="M118.4,58.6a.5.5,0,0,1-.5-.5V16.9a.5.5,0,0,1,.5-.5h6.3a.5.5,0,0,1,.4.5V52.1h8.1a.5.5,0,0,1,.5.5v5.6a.5.5,0,0,1-.5.5Z"/><path d="M143.8,51.6V23.4c0-4,3.1-7.8,8.6-7.8s8.8,3.8,8.8,7.8v12c0,.3-.1.5-.4.5h-6.3a.5.5,0,0,1-.5-.5V23.6a1.5,1.5,0,0,0-1.5-1.5,1.5,1.5,0,0,0-1.5,1.5V51.3a1.4,1.4,0,0,0,1.5,1.5,1.5,1.5,0,0,0,1.5-1.5V39.6c0-.4.2-.4.5-.4h6.3c.3,0,.4.1.4.4V51.7c0,4-3.2,7.8-8.8,7.8s-8.6-3.8-8.6-7.8"/><path d="M163.6,51.6V23.4c0-4,3.1-7.8,8.6-7.8s8.8,3.8,8.8,7.8V51.7c0,4-3.3,7.8-8.8,7.8s-8.6-3.8-8.6-7.8m6.9-37.9c-.4,0-.6-.2-.5-.6l1.4-6.8a.5.5,0,0,1,.5-.5h5.4c.4,0,.6.3.4.7l-2.4,6.8a.7.7,0,0,1-.5.4Zm3.3,37.6V23.6a1.5,1.5,0,0,0-1.3-1.5h-.2a1.5,1.5,0,0,0-1.5,1.5V51.3a1.4,1.4,0,0,0,1.5,1.5,1.5,1.5,0,0,0,1.5-1.5"/><path d="M184.2,58.6a.5.5,0,0,1-.5-.5V16.9a.5.5,0,0,1,.5-.5h8.1c5.5,0,8.8,3.8,8.8,7.8V50.8c0,4.1-3.3,7.8-8.8,7.8Zm6.7-6.7h1.5a1.5,1.5,0,0,0,1.5-1.5v-26a1.5,1.5,0,0,0-1.5-1.5h-1.5Z"/><path d="M204.3,58.6a.5.5,0,0,1-.5-.5V16.9a.5.5,0,0,1,.5-.5h6.3a.5.5,0,0,1,.4.5V58.2c0,.3-.1.5-.4.5Z"/><path d="M213.8,51.6V23.4c0-4,3.1-7.8,8.6-7.8s8.8,3.8,8.8,7.8v9.4a.5.5,0,0,1-.5.4h-6.1c-.3,0-.4-.1-.4-.4v-9a1.8,1.8,0,0,0-1.7-1.7,1.8,1.8,0,0,0-1.7,1.7V51.2a1.8,1.8,0,0,0,1.7,1.7,1.8,1.8,0,0,0,1.7-1.7V41.9h-1.3a.5.5,0,0,1-.5-.5V35.8a.5.5,0,0,1,.5-.5h7.8a.5.5,0,0,1,.5.5V58.5a.5.5,0,0,1-.5.5h-5.4c-.3,0-.4-.2-.4-.5V57.2h-.1a5.3,5.3,0,0,1-4.9,2.2c-4.4,0-6.1-3.8-6.1-7.8"/><path d="M233.8,51.6V23.4c0-4,3-7.8,8.5-7.8s8.8,3.8,8.8,7.8V51.7c0,4-3.2,7.8-8.8,7.8s-8.5-3.8-8.5-7.8m10.1-.3V23.6a1.5,1.5,0,0,0-1.3-1.5h-.2a1.4,1.4,0,0,0-1.4,1.4h0V51.3a1.5,1.5,0,0,0,1.4,1.5,1.5,1.5,0,0,0,1.5-1.5"/><path d="M262.6,58.6c-.3,0-.4-.2-.4-.5V16.9c0-.3.1-.5.4-.5h8.2c5.5,0,8.8,3.8,8.8,7.8V50.8c0,4.1-3.3,7.8-8.8,7.8Zm6.8-6.7h1.5a1.5,1.5,0,0,0,1.5-1.5v-26a1.5,1.5,0,0,0-1.5-1.5h-1.5Z"/><path d="M282.8,58.6a.5.5,0,0,1-.5-.5V16.9a.5.5,0,0,1,.5-.5h15.3a.5.5,0,0,1,.5.5v5.6a.5.5,0,0,1-.5.5h-8.6V34.1h6.9c.3,0,.4.2.4.5v5.6c0,.3-.1.5-.4.5h-6.9V52.1h8.6a.5.5,0,0,1,.5.5v5.6a.5.5,0,0,1-.5.5Z"/><path d="M310,58.6a.5.5,0,0,1-.5-.5V16.9a.5.5,0,0,1,.5-.5h6.3a.5.5,0,0,1,.4.5V52.1h8.1a.5.5,0,0,1,.5.5v5.6a.5.5,0,0,1-.5.5Z"/><path d="M326.6,58.6c-.3,0-.5-.2-.4-.5l5.1-41.3c0-.4.3-.4.6-.4h8c.2-.1.5.1.6.3h0l5.1,41.3c0,.3-.1.5-.4.5h-6a.5.5,0,0,1-.5-.5l-.9-7.5h-3.9l-.8,7.5a.5.5,0,0,1-.5.5ZM334.5,44h2.8L336,29.3h-.3Z"/><path d="M356.2,58.6a.5.5,0,0,1-.5-.5V16.9a.5.5,0,0,1,.5-.5h6.2a.5.5,0,0,1,.5.5V58.2a.5.5,0,0,1-.5.5Z"/><path d="M376.7,16.9a.5.5,0,0,1,.5-.5h5.6a.5.5,0,0,1,.5.5V58.2a.5.5,0,0,1-.5.5h-5.4a1,1,0,0,1-.5-.4l-4.2-21.2h-.2V58.2a.5.5,0,0,1-.5.5h-5.6a.5.5,0,0,1-.5-.5V16.9a.5.5,0,0,1,.5-.5h5.4c.3,0,.5.1.5.4l4.2,21.1h.2Z"/><path d="M386.7,58.6c-.3,0-.4-.2-.4-.5V16.9c0-.3.1-.5.4-.5h16a.5.5,0,0,1,.5.5v5.6a.5.5,0,0,1-.5.5h-9.2V34.5h7.1a.5.5,0,0,1,.5.5v5.7c0,.3-.2.4-.5.4h-7.1V58.2a.5.5,0,0,1-.5.5Z"/><path d="M406,58.6a.5.5,0,0,1-.5-.5V16.9a.5.5,0,0,1,.5-.5h6.2a.5.5,0,0,1,.5.5V52.1h8.1c.3,0,.4.1.4.5v5.6c0,.3-.1.5-.4.5Z"/><path d="M422.5,16.9a.5.5,0,0,1,.5-.5h6.2c.3,0,.4.2.4.5V51.4a1.6,1.6,0,0,0,1.6,1.5,1.5,1.5,0,0,0,1.5-1.5h0V16.9a.5.5,0,0,1,.5-.5h6.2a.5.5,0,0,1,.5.5V51.7c0,4-3.3,7.8-8.8,7.8s-8.6-3.8-8.6-7.8Z"/><path d="M443,58.6c-.3,0-.4-.2-.4-.5V16.9c0-.3.1-.5.4-.5h15.4a.5.5,0,0,1,.5.5v5.6a.5.5,0,0,1-.5.5h-8.6V34.1h6.8a.5.5,0,0,1,.5.5v5.6a.5.5,0,0,1-.5.5h-6.8V52.1h8.6a.5.5,0,0,1,.5.5v5.6a.5.5,0,0,1-.5.5Z"/><path d="M472.2,16.9a.5.5,0,0,1,.5-.5h5.7a.5.5,0,0,1,.5.5V58.2a.5.5,0,0,1-.5.5H473a.5.5,0,0,1-.5-.4l-4.3-21.2h-.1V58.2a.5.5,0,0,1-.5.5h-5.7c-.3,0-.4-.2-.4-.5V16.9c0-.3.1-.5.4-.5h5.5c.3,0,.4.1.5.4l4.2,21.1h.1Z"/><path d="M481.6,51.6V23.4c0-4,3.1-7.8,8.6-7.8s8.8,3.8,8.8,7.8v12a.5.5,0,0,1-.5.5h-6.2a.5.5,0,0,1-.5-.5V23.6a1.5,1.5,0,0,0-1.5-1.5,1.5,1.5,0,0,0-1.6,1.4h0V51.3a1.4,1.4,0,0,0,1.6,1.5,1.5,1.5,0,0,0,1.5-1.5V39.6c0-.4.2-.4.5-.4h6.2c.3,0,.5.1.5.4V51.7c0,4-3.3,7.8-8.8,7.8s-8.6-3.8-8.6-7.8"/><path d="M502.1,58.6a.5.5,0,0,1-.5-.5V16.9a.5.5,0,0,1,.5-.5h6.2a.5.5,0,0,1,.5.5V58.2a.5.5,0,0,1-.5.5Z"/><path d="M511.1,58.6a.5.5,0,0,1-.5-.5l5.2-41.3c0-.4.2-.4.5-.4h8.1c.2-.1.4.1.5.4L530,58.1c.1.3-.1.5-.4.5h-5.9a.5.5,0,0,1-.6-.5l-.8-7.5h-3.9l-.8,7.5c-.1.3-.3.6-.6.5ZM518.9,44h2.8l-1.3-14.6h-.2Z"/></g></svg>