<svg xmlns="http://www.w3.org/2000/svg" viewBox="0 0 1533 512"><rect width="1533" height="512" fill="#fde9e1"/><path d="M534.7,255.8a1.6,1.6,0,0,1-1.6-1.5v-146a1.6,1.6,0,0,1,1.6-1.5H589a1.5,1.5,0,0,1,1.5,1.5v20c0,1.2-.4,1.6-1.5,1.6H558.5v39.3h24.3a1.5,1.5,0,0,1,1.5,1.5v20a1.7,1.7,0,0,1-1.5,1.9H558.5v40.1H589a1.5,1.5,0,0,1,1.5,1.5v20.1c0,1.1-.4,1.5-1.5,1.5Z" fill="#1d1d1b"/><path d="M601.3,255.8a1.6,1.6,0,0,1-1.6-1.5v-146a1.6,1.6,0,0,1,1.6-1.5h22.3a1.6,1.6,0,0,1,1.6,1.5V232.7h28.5a1.5,1.5,0,0,1,1.5,1.5v20.1a1.5,1.5,0,0,1-1.5,1.5Z" fill="#1d1d1b"/><path d="M865.1,426.4c-1.2,0-1.9-.4-1.9-1.5v-146c0-1.1.7-1.5,1.9-1.5H887a1.6,1.6,0,0,1,1.6,1.5v146c0,1.1-.4,1.5-1.6,1.5Z" fill="#1d1d1b"/><path d="M937.5,278.9c0-1.1.4-1.5,1.5-1.5h20.1a1.5,1.5,0,0,1,1.5,1.5v146a1.5,1.5,0,0,1-1.5,1.5H939.8a1.5,1.5,0,0,1-1.5-1.5l-15.1-74.7h-.7v74.7c0,1.1-.4,1.5-1.6,1.5h-20c-1.1,0-1.5-.4-1.5-1.5v-146c0-1.1.4-1.5,1.5-1.5h19.3a1.9,1.9,0,0,1,1.9,1.5l14.6,74.7h.8Z" fill="#1d1d1b"/><path d="M972.9,426.4c-1.1,0-1.9-.4-1.9-1.5v-146c0-1.1.8-1.5,1.9-1.5h56.3c1.1,0,1.5.4,1.5,1.5v20c0,1.2-.4,1.6-1.5,1.6H996.4v40.8h25.4c1.2,0,1.6.4,1.6,1.5v20.1c0,1.1-.4,1.5-1.6,1.5H996.4v60.5c0,1.1-.4,1.5-1.5,1.5Z" fill="#1d1d1b"/><path d="M1040.7,426.4c-1.1,0-1.5-.4-1.5-1.5v-146c0-1.1.4-1.5,1.5-1.5h22c1.1,0,1.9.4,1.9,1.5V403.3h28.1c1.2,0,1.9.4,1.9,1.6v20c0,1.1-.7,1.5-1.9,1.5Z" fill="#1d1d1b"/><path d="M1098.9,278.9c0-1.1.7-1.5,1.9-1.5h21.6c1.1,0,1.9.4,1.9,1.5V400.6a5.4,5.4,0,1,0,10.8,0V278.9c0-1.1.4-1.5,1.5-1.5h22c1.1,0,1.9.4,1.9,1.5V401.8c0,14.2-11.6,27.7-31.2,27.7s-30.4-13.5-30.4-27.7Z" fill="#1d1d1b"/><path d="M1171.7,426.4c-1.2,0-2-.4-2-1.5v-146c0-1.1.8-1.5,2-1.5h53.9c1.1,0,1.9.4,1.9,1.5v20c0,1.2-.8,1.6-1.9,1.6h-30.5v39.3h24.3c1.2,0,1.6.4,1.6,1.5v20c0,1.2-.4,1.6-1.6,1.6h-24.3v40.4h30.5c1.1,0,1.9.4,1.9,1.6v20c0,1.1-.8,1.5-1.9,1.5Z" fill="#1d1d1b"/><path d="M1274.5,278.9c0-1.1.8-1.5,1.9-1.5h19.7c1.1,0,1.9.4,1.9,1.5v146c0,1.1-.8,1.5-1.9,1.5h-18.9a1.8,1.8,0,0,1-1.9-1.5l-14.7-74.7h-.8v74.7a1.5,1.5,0,0,1-1.5,1.5h-20c-1.2,0-1.9-.4-1.9-1.5v-146c0-1.1.7-1.5,1.9-1.5h18.9c1.1,0,1.9.4,1.9,1.5l14.6,74.7h.8Z" fill="#1d1d1b"/><path d="M1307.6,401.8V302c0-14.2,10.8-27.7,30-27.7s31.2,13.5,31.2,27.7v42.4c0,1.1-.3,1.5-1.5,1.5h-22c-1.1,0-1.9-.4-1.9-1.5V302.8a5,5,0,0,0-5-5,5.5,5.5,0,0,0-5.8,5h0v97.8a5.4,5.4,0,0,0,5.4,5.4h.4a5,5,0,0,0,5-5V359.4a1.9,1.9,0,0,1,1.9-1.9h22c1.2,0,1.5.8,1.5,1.9v42.4c0,14.2-11.5,27.7-31.2,27.7s-30-13.5-30-27.7" fill="#1d1d1b"/><path d="M1380,426.4c-1.1,0-1.9-.4-1.9-1.5v-146c0-1.1.8-1.5,1.9-1.5h22a1.5,1.5,0,0,1,1.5,1.5v146c0,1.1-.4,1.5-1.5,1.5Z" fill="#1d1d1b"/><path d="M1411.6,426.4c-1.2,0-1.9-.4-1.5-1.5l18.1-146c0-1.1.7-1.5,1.9-1.5h28.5a1.9,1.9,0,0,1,1.9,1.5l18.1,146c0,1.1-.4,1.5-1.5,1.5h-21.2c-.8,0-1.9-.4-1.9-1.5l-2.7-26.6h-13.9l-2.7,26.6c0,1.1-1.2,1.5-1.9,1.5Zm27.7-51.2h10l-4.6-52h-.8Z" fill="#1d1d1b"/><path d="M686.4,228.1V128.7c0-14.2,11.2-27.7,30.4-27.7S748,114.5,748,128.7v42a1.8,1.8,0,0,1-1.9,1.9h-22a1.9,1.9,0,0,1-1.9-1.9V129.5a5,5,0,0,0-4.6-5.4h-.4a5.4,5.4,0,0,0-5.4,5.4v97.8a5,5,0,0,0,5,5h.4a5,5,0,0,0,5-5V185.7c0-1.1.8-1.5,1.9-1.5h22c1.1,0,1.9.4,1.9,1.5v42.4c0,14.6-11.5,27.7-31.2,27.7s-30.4-13.1-30.4-27.7" fill="#1d1d1b"/><path d="M756.1,228.1V128.7c0-14.2,11.2-27.7,30.4-27.7s31.2,13.5,31.2,27.7v99.4c0,14.6-11.5,27.7-31.2,27.7s-30.4-13.1-30.4-27.7M780.4,94.4c-1.2,0-2-.3-1.6-1.5l4.6-24.3a2.8,2.8,0,0,1,2-1.5h19.2c1.2,0,2,.8,1.6,2.3l-8.9,23.9c-.4,1.1-.8,1.1-1.9,1.1Zm11.9,132.9V129.5a5.4,5.4,0,1,0-10.8,0v97.8a5.4,5.4,0,1,0,10.8,0" fill="#1d1d1b"/><path d="M828.9,253.1a1.9,1.9,0,0,1-1.9-1.9V105.6a1.8,1.8,0,0,1,1.9-1.9h28.5c19.6,0,31.2,13.5,31.2,27.7v94c0,14.2-11.6,27.7-31.2,27.7Zm23.5-23.5h5.4a5.4,5.4,0,0,0,5.4-5.4v-92a5,5,0,0,0-5-5h-5.8Z" fill="#1d1d1b"/><path d="M899.8,253.1c-1.2,0-1.6-.8-1.6-1.9V105.6c0-1.1.4-1.9,1.6-1.9h22.3a1.8,1.8,0,0,1,1.5,1.9V251.2a1.8,1.8,0,0,1-1.5,1.9Z" fill="#1d1d1b"/><path d="M933.3,228.1V128.7c0-14.2,10.7-27.7,30.4-27.7s30.8,13.5,30.8,27.7v32.8c0,1.1-.4,1.9-1.5,1.9H971.4a2,2,0,0,1-1.6-1.9V129.9a5.7,5.7,0,0,0-5.7-5.8,6.2,6.2,0,0,0-6.2,5.8v97a6.2,6.2,0,0,0,6.2,5.4,5.7,5.7,0,0,0,5.7-5.4V194.2h-4.2a1.9,1.9,0,0,1-1.9-1.6v-20a1.9,1.9,0,0,1,1.9-1.9H993c1.1,0,1.5.8,1.5,1.9v80.1c0,1.2-.4,2-1.5,2H974.1c-1.2,0-1.6-.8-1.6-2v-4.6h-.7a19.5,19.5,0,0,1-17,7.7c-15.8,0-21.5-13.1-21.5-27.7" fill="#1d1d1b"/><path d="M1003.7,228.1V128.7c0-14.2,10.8-27.7,30.1-27.7s31.2,13.5,31.2,27.7v99.4c0,14.6-11.6,27.7-31.2,27.7s-30.1-13.1-30.1-27.7m35.9-.8V129.5a5,5,0,0,0-4.7-5.4h-.4a5.4,5.4,0,0,0-5.3,5.4v97.8a4.9,4.9,0,0,0,4.9,5h.4a5,5,0,0,0,5.1-5" fill="#1d1d1b"/><path d="M535.4,426.4a1.5,1.5,0,0,1-1.5-1.5v-146a1.5,1.5,0,0,1,1.5-1.5h28.9c19.3,0,30.8,13.5,30.8,27.7v93.6c0,14.2-11.5,27.7-30.8,27.7Zm23.9-23.5h5.4a5,5,0,0,0,5-5h0v-92a5,5,0,0,0-4.6-5.4h-5.8Z" fill="#1d1d1b"/><path d="M606.7,426.4a1.6,1.6,0,0,1-1.6-1.5v-146c0-1.1.4-1.5,1.6-1.5H661c1.1,0,1.5.4,1.5,1.5v20c0,1.2-.4,1.6-1.5,1.6H630.5v39.3h23.9c1.2,0,2,.4,2,1.5v20c0,1.2-.8,1.6-2,1.6H630.5v40.4H661c1.1,0,1.5.4,1.5,1.6v20c0,1.1-.4,1.5-1.5,1.5Z" fill="#1d1d1b"/><path d="M702.6,426.4a1.6,1.6,0,0,1-1.6-1.5v-146a1.6,1.6,0,0,1,1.6-1.5h22.3a1.5,1.5,0,0,1,1.5,1.5V403.3h28.5c1.2,0,1.6.4,1.6,1.6v20c0,1.1-.4,1.5-1.6,1.5Z" fill="#1d1d1b"/><path d="M761.5,426.4c-1.2,0-1.9-.4-1.9-1.5l18.5-146c0-1.1.7-1.5,1.9-1.5h28.1c1.1,0,1.9.4,1.9,1.5l18.1,146c.4,1.1-.4,1.5-1.1,1.5H805.8c-1.2,0-1.9-.4-1.9-1.5l-3.1-26.6H786.9l-2.7,26.6c0,1.1-.8,1.5-1.9,1.5Zm27.7-51.2h9.7l-4.7-52h-.7Z" fill="#1d1d1b"/><path d="M458.4,255.8C458.2,144.4,368,54.2,256.6,54V255.8Z" fill="#1d1d1b"/><path d="M54.4,255.8C54.4,367.5,144.9,458,256.6,458V255.8Z" fill="#1d1d1b"/></svg>