<svg xmlns="http://www.w3.org/2000/svg" viewBox="0 0 510.4 378.2">
<g fill="var(--title, #1d1d1b)" transform="translate(-0.9 -0.4)">
<polygon points="488 158 478.2 158 467.7 175.6 477.6 175.6 488 158"/>
<polygon points="428.6 175.6 438.5 175.6 448.9 158 439.1 158 428.6 175.6"/>
<polygon points="448.9 220.8 438.5 203.2 428.6 203.2 439.1 220.8 448.9 220.8"/>
<path d="M496.3,184.4H179.9a15.1,15.1,0,0,1-15-15.1,15.8,15.8,0,0,1,2.1-7.6l11.2-18.9-38.1,25.1h0l-16.9,11a5.4,5.4,0,0,0-2.1,3,58.2,58.2,0,0,0,0,15.6h0a5.3,5.3,0,0,0,2.1,3.1L140,211.7h.1l38.1,25.1-11.2-19a15,15,0,0,1,5.3-20.5,14.8,14.8,0,0,1,7.6-2.1H496.3Z"/>
<polygon points="448.2 175.6 458 175.6 468.5 158 458.6 158 448.2 175.6"/>
<polygon points="507.6 220.8 497.1 203.2 487.3 203.2 497.7 220.8 507.6 220.8"/>
<polygon points="468.5 220.8 458 203.2 448.2 203.2 458.6 220.8 468.5 220.8"/>
<polygon points="497.7 158 487.3 175.6 497.1 175.6 507.6 158 497.7 158"/>
<polygon points="488 220.8 477.6 203.2 467.7 203.2 478.2 220.8 488 220.8"/>
<g fill="var(--main, #fce4da)">
<path d="M118.7,171.9l14.6-9.6c-3.8-20.7-11.3-31.7-16.8-31.7-8.1,0-19.3,22.4-19.3,58.8s11.2,58.9,19.3,58.9c5.5,0,12.9-10.7,16.7-31.1l-14.5-9.6a12.7,12.7,0,0,1-5.8-8.9,60.3,60.3,0,0,1,0-18A12.5,12.5,0,0,1,118.7,171.9Z"/>
<path d="M152,127.9l5.4-3.7c-9.9-39.6-28.8-65-48.2-65-30.4,0-55.9,59.6-55.9,130.2s25.5,130.4,55.9,130.4c19.3,0,38-25.2,48.1-64.5l-5.4-3.8c-8.2,28.5-21.5,44.7-36.7,44.7-25.2,0-44.9-46.9-44.9-106.8S90,82.6,115.2,82.6C130.2,82.6,143.8,99.5,152,127.9Z"/>
<path d="M102.8,354.7C56.1,354.7,18,280.5,18,189.4S56.1,24.2,102.8,24.2c31.6,0,59.9,32.9,74.7,86.1l5.8-3.9C167,41.9,133.3.4,97,.4,44,.4.9,85.2.9,189.4S44,378.6,97,378.6c36.2,0,69.9-41.4,86.1-105.4l-5.8-4.1C162.6,322.1,134.3,354.7,102.8,354.7Z"/>
<path d="M214.4,114.1H507.1a4.2,4.2,0,1,0,0-8.3H214.4a4.2,4.2,0,1,0,0,8.3Z"/>
<path d="M406.5,149.8a4.2,4.2,0,0,0,0-8.4H248.6a4.2,4.2,0,1,0,0,8.4Z"/>
<path d="M507.1,265.4H214.4a4.2,4.2,0,0,0,0,8.4H507.1a4.2,4.2,0,0,0,4.2-4.2A4.3,4.3,0,0,0,507.1,265.4Z"/>
<path d="M248.6,229.7a4.2,4.2,0,0,0-4.2,4.2,4.2,4.2,0,0,0,4.2,4.2H406.5a4.2,4.2,0,0,0,0-8.4H248.6Z"/>
</g>
</g>
</svg>