
<svg xmlns="http://www.w3.org/2000/svg" viewBox="0 0 506.6 389">
<g fill="var(--main, #fce4da)" transform="translate(-4.2 0)">
<path fill="var(--title, #1d1d1b)" d="M506,348.7H8.6a3.7,3.7,0,0,0-4,3.3v.7a3.6,3.6,0,0,0,3.6,3.8.3.3,0,0,0,.4,0h62a3.9,3.9,0,0,0-.8,2v25.7a4,4,0,0,0,3.1,4.7,4.2,4.2,0,0,0,4.8-3.2,3.8,3.8,0,0,0,0-1.5V358.5a3.2,3.2,0,0,0-.8-2H192.1a3.9,3.9,0,0,0-.8,2v25.7a4,4,0,0,0,8,0V358.5a2.8,2.8,0,0,0-.9-2H313.7a3.1,3.1,0,0,0-.7,2v25.7a3.9,3.9,0,0,0,3.1,4.7,4,4,0,0,0,4.7-3.2,1.9,1.9,0,0,0,0-1.5V358.5a3.7,3.7,0,0,0-.7-2H435.3a3.9,3.9,0,0,0-.8,2v25.7a4,4,0,0,0,3.1,4.7,4.2,4.2,0,0,0,4.8-3.2,3.8,3.8,0,0,0,0-1.5V358.5a3.2,3.2,0,0,0-.8-2H506a3.9,3.9,0,0,0,4.7-3.1,4,4,0,0,0-3.2-4.7Z"/>
<path d="M45.7,296.6l7.9,13.5L24.9,326.6a8.2,8.2,0,0,1-4.1,1.2,8,8,0,0,1-6.7-4,7.4,7.4,0,0,1,1.5-10.4l.5-.2Zm39.8-3.8L73.3,313.2H61.1L49.3,292.8Zm4.1,3.8,29.1,16.6a7.9,7.9,0,0,1-4,14.6,6.4,6.4,0,0,1-3.8-1.2L82,310.1ZM40.1,254.5,24.9,264.7a8.2,8.2,0,0,1-4.1,1.2,8,8,0,0,1-6.7-4,8,8,0,0,1,2.4-10.7l24.1-12.9Zm55-16.2,23.6,12.6a7.5,7.5,0,0,1,2.5,10.4c0,.1-.1.2-.1.3a8.1,8.1,0,0,1-6.7,3.8,7,7,0,0,1-4-1L95.4,254V238.3ZM12.2,306.5a15.6,15.6,0,0,0-5.4,21.4.3.3,0,0,1,.1.2,16.8,16.8,0,0,0,13.5,7.6,16.2,16.2,0,0,0,8.3-2.3l29.2-16.7.5.5a4.2,4.2,0,0,0,3.5,2H74.1a4.3,4.3,0,0,0,3.6-2l.4-.5,28.7,16.7a16.6,16.6,0,0,0,8.4,2.3,15.2,15.2,0,0,0,13.4-7.6,16.1,16.1,0,0,0-5.1-21.6L95.9,289.2V264.4l11.4,6.6a16.4,16.4,0,0,0,8.3,2.5,15.3,15.3,0,0,0,13.3-7.6,16,16,0,0,0-5.1-21.6L99.7,230.4H91.6a6.7,6.7,0,0,0-2.8-.3c.3,1.8,0,41.4,0,55.6H47.7V230.4c-2.5,0-4,.5-7.9.5L11.7,244.3a15.4,15.4,0,0,0-5.3,21.2c.1.1.1.3.2.4a16.8,16.8,0,0,0,13.5,7.6,17.5,17.5,0,0,0,8.3-2.5l12.2-6.6v24.4Z"/>
<path d="M66.2,189.5a15.8,15.8,0,1,1-15.7,15.7,15.7,15.7,0,0,1,15.7-15.7Zm-7.5,38.1,2.4.8,1.9.4h5.6l2-.4a4.9,4.9,0,0,0,2.3-.8,23.3,23.3,0,0,0,16.2-22.4,23.8,23.8,0,1,0-47.4-3.8,24.1,24.1,0,0,0,0,3.8C42.6,215.4,49.3,224.5,58.7,227.6Z"/>
<path d="M196.1,128.3a19.8,19.8,0,1,1-19.8,19.8v-.2A19.8,19.8,0,0,1,196.1,128.3Zm0,47.3a27.7,27.7,0,1,0-27.6-27.7,27.9,27.9,0,0,0,27.6,27.7Z"/>
<path d="M170.5,276.9h15.7v43.4a7.8,7.8,0,0,1-7.9,7.8h-.4a7.3,7.3,0,0,1-7.5-7,4.9,4.9,0,0,1,.1-1.2Zm35.9,0h15.8v43a7.9,7.9,0,0,1-7.9,7.9h-.5a7.3,7.3,0,0,1-7.4-7.3V276.9Zm-44.3,0v42.6a16.1,16.1,0,0,0,15.5,16.2h.3a15.8,15.8,0,0,0,15.9-15.4V276.9h4.3v42.6c-.5,8.6,6.6,15.7,15.4,16.2h.3a15.6,15.6,0,0,0,15.8-15.4h0V276.9a15.7,15.7,0,0,0,15.9-15.6V199.7a31.9,31.9,0,0,0-21.8-30,41.8,41.8,0,0,1-6.6,6.7,23.3,23.3,0,0,1,20.1,23.3v61.4a7.9,7.9,0,0,1-7.9,7.9h-4V240.7a3.8,3.8,0,0,0-3.4-4h-.5a3.8,3.8,0,0,0-4,3.4V269H174V240.7a3.7,3.7,0,0,0-3.4-4H170a3.8,3.8,0,0,0-3.9,3.6V269h-4a7.9,7.9,0,0,1-7.9-7.9V199.7a23.3,23.3,0,0,1,20.1-23.3,38,38,0,0,1-6.6-6.7,32.1,32.1,0,0,0-21.8,30v61.4A16.4,16.4,0,0,0,162.1,276.9Z"/>
<path d="M318.1,59.3a19.8,19.8,0,1,1-19.8,19.8v-.2a19.5,19.5,0,0,1,19.3-19.6Zm0,47.3a27.6,27.6,0,1,0-.3,0Z"/>
<path d="M286.6,230.4h21.3v87.2a10.4,10.4,0,0,1-10.5,10.2h-.6a10.3,10.3,0,0,1-10.3-10.4c0-.3.1-.5.1-.7Zm42.1,0H348c.5,0,.8.5,1.3.5h.7v87a10.2,10.2,0,0,1-10.5,10.2h-.4a10.4,10.4,0,0,1-10.4-10.3V230.4Zm-50.2-.3v87.1a18.7,18.7,0,0,0,18.1,19h.6a19.3,19.3,0,0,0,18.6-18.3V230.1h5v86.6a18.2,18.2,0,0,0,17.5,19h1.1a18.5,18.5,0,0,0,18.5-18.1v-88a17.5,17.5,0,0,0,15-17.3V157.8A55.3,55.3,0,0,0,339.4,107a35.8,35.8,0,0,1-9.4,5.1,47.4,47.4,0,0,1,35,45.7v54.5a9.9,9.9,0,0,1-9.9,9.9h-2.3V183.9a3.7,3.7,0,0,0-3.4-4h-.6a3.8,3.8,0,0,0-3.9,3.5v38.8H292.4V183.9a3.7,3.7,0,0,0-3.3-4h-.7a3.6,3.6,0,0,0-3.8,3.5c-.1.2,0,.4,0,.5v38.3h-4a9.9,9.9,0,0,1-9.9-9.9h0V159.4c0-22.4,14.9-41.7,35.2-47.3a34,34,0,0,1-9.6-5.1c-20.1,8.7-33.8,29.5-33.8,52.4v52.9a19.1,19.1,0,0,0,16,17.8Z"/>
<path d="M442.8,8.1a19.8,19.8,0,1,1-19.7,19.7h0A19.5,19.5,0,0,1,442.7,8.1Zm0,47.2a27.5,27.5,0,1,0-.3,0Z"/>
<path d="M411.2,206.8h21.3V317.6a10.2,10.2,0,0,1-10.2,10.2h-.8a10.4,10.4,0,0,1-10.3-10.6V206.8Zm42.6,0h19.4l1.1.3h1V317.9a10.3,10.3,0,0,1-10.5,10.2h-.7a10.4,10.4,0,0,1-10.3-10.6V206.8Zm-50.5-.5V317.2A18.3,18.3,0,0,0,421,336.1h.8a19.1,19.1,0,0,0,18.7-18.3V206.3h5.1V316.7a18.2,18.2,0,0,0,17.4,19h1.1a18.6,18.6,0,0,0,18.6-18.1V206a17.4,17.4,0,0,0,14.9-17.5V106.6a55.1,55.1,0,0,0-33.5-50.8,38.7,38.7,0,0,1-9.4,5.1,47.4,47.4,0,0,1,35.1,45.7v81.9a9.7,9.7,0,0,1-9.6,9.9h-2.6V152.3a3.7,3.7,0,0,0-3.6-3.9h-.4a3.7,3.7,0,0,0-3.9,3.5v46.5h-53V152.3a3.7,3.7,0,0,0-3.5-3.9h-.3a3.6,3.6,0,0,0-4,3.4v46.6h-4.1a9.7,9.7,0,0,1-9.7-9.7V108.1c0-22.4,15-41.7,35.1-47.2a34.9,34.9,0,0,1-9.5-5.1,57,57,0,0,0-33.9,52.3v80.4A19.6,19.6,0,0,0,403.3,206.3Z"/>
</g>
</svg>