<svg xmlns="http://www.w3.org/2000/svg" viewBox="0 0 100 100"><path d="M81.3,36.9l-3.7-3.6A5.5,5.5,0,0,1,79,32.1a1.7,1.7,0,0,1,1.2.1,5.3,5.3,0,0,1,2.1,2.1,1.2,1.2,0,0,1-.1,1.6Z"/><path d="M40.8,70.6l3,1.6-1.4,1.5c-.6-1-1.1-2-1.6-3Z"/><path d="M100,27.2l-.4.3-4.2,4.2L68.2,58.9,42,85.1l-.2.2h-.1l-.3-.4L29.8,73.3l-.4-.4c.1-.1.2-.2.2-.3l18-17.9L61.7,40.6,87.1,15.1a.8.8,0,0,0,.4-.4h.1L100,27.1ZM80.7,40.5l.2-.2,2.9-2.9.8-1a3.5,3.5,0,0,0,.1-3.8,6.8,6.8,0,0,0-3-2.8,3.6,3.6,0,0,0-2.5-.4,4.4,4.4,0,0,0-2,1.3l-3,3c-.1,0-.1.1-.2.2ZM37.9,70c1.4,3,2.8,6,4.1,9.1L44.1,77c-.2-.5-.5-.9-.7-1.3l2.4-2.4,1.3.7,2.2-2.2-9.1-4.1Zm28-14.8-9.1-4.1-2.3,2.3,4.2,9.1,2-2.1L60,59l2.4-2.3,1.3.7A22.8,22.8,0,0,0,65.9,55.2Zm16.8-30c1.4,3.1,2.7,6.1,4.1,9.1l2.1-2.1-.7-1.3,2.4-2.4,1.3.7L94,27l-9-4.1ZM62.5,45.5l9,4.1c.8-.8,1.6-1.5,2.3-2.3-1.4-3-2.8-6-4.1-9l-2.1,2.1,3.2,6.1h-.1l-6.1-3.2ZM48.6,59.4l-2,2L53.1,68l5.2-5.2-1.6-1.6-3.2,3.2ZM79.1,42.1l-6.6-6.6-2,1.9L77.1,44Z"/><path d="M0,43.8l.4-.3C4.3,39.7,8.1,35.8,12,31.9l.3-.3L40.1,59.4,27.8,71.8,0,43.9Zm26.4,7.5L21,45.8l-6.5,6.6,5.4,5.5,1.5-1.5L18,53a8,8,0,0,1,1.3-1.3l3.1,3.1,1.4-1.4-3.1-3.1,1-1.1,3.4,3.4Zm5,8.5a2.9,2.9,0,0,0,.4-3.3,7.5,7.5,0,0,0-2.7-2.6l-1-.4a2.4,2.4,0,0,0-2.3.7,2,2,0,0,0-.5,2.4,7.2,7.2,0,0,0,.9,2c.2.5.5.9.7,1.4a.8.8,0,0,1-.2.9.9.9,0,0,1-1,.2,1.6,1.6,0,0,1-1-2.2l.3-.5-2-1.8a3.1,3.1,0,0,0-.4,4,8.8,8.8,0,0,0,2.1,2.2l1.1.6a3.1,3.1,0,0,0,3.3-.8,2.7,2.7,0,0,0,.3-3.1c-.3-.7-.7-1.3-1-2a3.5,3.5,0,0,1-.5-.8.6.6,0,0,1,.1-.8c.2-.2.5-.2.9-.1a1.5,1.5,0,0,1,.5,2V58ZM11.1,49.1l2.5-2.5.7-.4,5.3-1,.6-.2c-.7-.7-1.4-1.5-2.2-2.2l-3.5.8c.3-1.2.6-2.4.9-3.4l-2.3-2.3c0,.1-.1.2-.1.3-.4,1.9-.7,3.7-1.1,5.6a1.2,1.2,0,0,1-.4.8l-1.4,1.3L9,46.9Z"/><path d="M59,57l-1.6-2.9a.1.1,0,0,0,.1-.1l2.9,1.6A9.3,9.3,0,0,0,59,57Z"/><path d="M85.6,25.9l2.9,1.5-1.4,1.4-1.5-2.9Z"/></svg>